<svg width="416" height="128" viewBox="0 0 416 128" fill="none" xmlns="http://www.w3.org/2000/svg">
<rect x="236" y="76" width="180" height="52" rx="8" fill="#0B0F19"/>
<path d="M279.57 101.809C279.534 97.899 282.853 95.9968 283.005 95.9083C281.125 93.2359 278.211 92.8707 277.187 92.8416C274.74 92.5905 272.366 94.2694 271.119 94.2694C269.848 94.2694 267.928 92.8659 265.859 92.9071C263.196 92.9472 260.705 94.4502 259.339 96.7841C256.52 101.543 258.622 108.536 261.324 112.383C262.675 114.267 264.254 116.371 266.32 116.297C268.342 116.215 269.097 115.04 271.537 115.04C273.955 115.04 274.664 116.297 276.771 116.249C278.941 116.215 280.307 114.357 281.611 112.456C283.173 110.297 283.8 108.17 283.825 108.061C283.774 108.044 279.611 106.495 279.57 101.809Z" fill="white"/>
<path d="M275.588 90.3111C276.676 88.9852 277.42 87.1814 277.213 85.3508C275.639 85.4188 273.671 86.4123 272.537 87.7091C271.535 88.8518 270.639 90.7248 270.87 92.4862C272.638 92.6148 274.454 91.6164 275.588 90.3111Z" fill="white"/>
<path d="M308.76 116.028H305.934L304.387 111.286H299.007L297.532 116.028H294.781L300.112 99.8842H303.404L308.76 116.028ZM303.92 109.297L302.52 105.081C302.372 104.65 302.095 103.636 301.685 102.04H301.636C301.473 102.726 301.21 103.741 300.849 105.081L299.475 109.297H303.92Z" fill="white"/>
<path d="M322.467 110.064C322.467 112.044 321.918 113.609 320.821 114.758C319.838 115.781 318.618 116.291 317.161 116.291C315.588 116.291 314.458 115.74 313.77 114.639H313.721V120.771H311.068V108.219C311.068 106.975 311.034 105.697 310.97 104.387H313.302L313.451 106.232H313.5C314.385 104.842 315.727 104.148 317.529 104.148C318.937 104.148 320.113 104.691 321.054 105.776C321.997 106.863 322.467 108.292 322.467 110.064ZM319.765 110.159C319.765 109.026 319.504 108.092 318.978 107.357C318.405 106.59 317.635 106.207 316.669 106.207C316.015 106.207 315.42 106.42 314.889 106.841C314.356 107.266 314.008 107.82 313.845 108.507C313.763 108.827 313.722 109.089 313.722 109.295V111.236C313.722 112.083 313.988 112.798 314.521 113.381C315.053 113.965 315.745 114.256 316.596 114.256C317.595 114.256 318.373 113.88 318.929 113.13C319.486 112.379 319.765 111.389 319.765 110.159Z" fill="white"/>
<path d="M336.199 110.064C336.199 112.044 335.651 113.609 334.552 114.758C333.57 115.781 332.35 116.291 330.893 116.291C329.32 116.291 328.19 115.74 327.504 114.639H327.454V120.771H324.801V108.219C324.801 106.975 324.768 105.697 324.703 104.387H327.036L327.184 106.232H327.234C328.117 104.842 329.46 104.148 331.262 104.148C332.67 104.148 333.845 104.691 334.788 105.776C335.728 106.863 336.199 108.292 336.199 110.064ZM333.497 110.159C333.497 109.026 333.234 108.092 332.709 107.357C332.136 106.59 331.368 106.207 330.401 106.207C329.746 106.207 329.152 106.42 328.62 106.841C328.087 107.266 327.74 107.82 327.577 108.507C327.496 108.827 327.454 109.089 327.454 109.295V111.236C327.454 112.083 327.72 112.798 328.25 113.381C328.783 113.963 329.474 114.256 330.328 114.256C331.327 114.256 332.105 113.88 332.661 113.13C333.218 112.379 333.497 111.389 333.497 110.159Z" fill="white"/>
<path d="M351.553 111.501C351.553 112.874 351.064 113.991 350.082 114.854C349.003 115.796 347.501 116.267 345.572 116.267C343.79 116.267 342.362 115.932 341.281 115.261L341.895 113.106C343.06 113.792 344.338 114.137 345.73 114.137C346.729 114.137 347.506 113.916 348.065 113.477C348.621 113.038 348.899 112.448 348.899 111.713C348.899 111.058 348.67 110.506 348.211 110.058C347.754 109.611 346.991 109.195 345.926 108.81C343.027 107.756 341.579 106.212 341.579 104.181C341.579 102.854 342.087 101.766 343.103 100.919C344.116 100.071 345.467 99.6477 347.157 99.6477C348.664 99.6477 349.915 99.9037 350.914 100.414L350.251 102.523C349.318 102.028 348.263 101.78 347.082 101.78C346.149 101.78 345.42 102.005 344.897 102.451C344.456 102.85 344.234 103.337 344.234 103.913C344.234 104.551 344.487 105.079 344.994 105.494C345.436 105.877 346.239 106.292 347.403 106.739C348.828 107.299 349.874 107.952 350.547 108.702C351.218 109.449 351.553 110.385 351.553 111.501Z" fill="white"/>
<path d="M360.323 106.328H357.399V111.98C357.399 113.417 357.914 114.136 358.947 114.136C359.421 114.136 359.814 114.096 360.125 114.015L360.198 115.979C359.676 116.17 358.988 116.266 358.136 116.266C357.088 116.266 356.269 115.954 355.678 115.332C355.09 114.708 354.794 113.662 354.794 112.193V106.326H353.052V104.385H354.794V102.253L357.399 101.487V104.385H360.323V106.328Z" fill="white"/>
<path d="M373.515 110.112C373.515 111.901 372.99 113.37 371.942 114.519C370.844 115.702 369.385 116.291 367.568 116.291C365.816 116.291 364.421 115.725 363.381 114.592C362.341 113.459 361.821 112.028 361.821 110.305C361.821 108.501 362.356 107.023 363.43 105.874C364.501 104.724 365.947 104.149 367.764 104.149C369.516 104.149 370.926 104.716 371.99 105.85C373.007 106.95 373.515 108.371 373.515 110.112ZM370.763 110.195C370.763 109.122 370.528 108.201 370.051 107.433C369.495 106.504 368.7 106.041 367.67 106.041C366.603 106.041 365.794 106.505 365.237 107.433C364.761 108.202 364.526 109.138 364.526 110.244C364.526 111.318 364.761 112.238 365.237 113.005C365.811 113.934 366.612 114.398 367.646 114.398C368.659 114.398 369.454 113.924 370.027 112.981C370.516 112.198 370.763 111.268 370.763 110.195Z" fill="white"/>
<path d="M382.137 106.662C381.875 106.614 381.595 106.59 381.301 106.59C380.368 106.59 379.646 106.933 379.139 107.621C378.697 108.228 378.476 108.995 378.476 109.92V116.028H375.824L375.849 108.053C375.849 106.711 375.815 105.49 375.75 104.388H378.06L378.157 106.616H378.23C378.51 105.85 378.952 105.234 379.557 104.772C380.148 104.356 380.786 104.148 381.474 104.148C381.719 104.148 381.941 104.165 382.137 104.196V106.662Z" fill="white"/>
<path d="M394.001 109.657C394.001 110.12 393.969 110.511 393.903 110.83H385.946C385.977 111.98 386.361 112.859 387.1 113.466C387.771 114.008 388.638 114.28 389.703 114.28C390.881 114.28 391.956 114.097 392.923 113.729L393.339 115.525C392.209 116.005 390.875 116.244 389.336 116.244C387.485 116.244 386.032 115.713 384.974 114.651C383.919 113.59 383.39 112.164 383.39 110.376C383.39 108.621 383.882 107.159 384.866 105.993C385.896 104.749 387.288 104.126 389.04 104.126C390.761 104.126 392.063 104.749 392.948 105.993C393.648 106.982 394.001 108.205 394.001 109.657ZM391.471 108.986C391.488 108.219 391.316 107.557 390.956 106.998C390.497 106.278 389.791 105.919 388.842 105.919C387.975 105.919 387.269 106.27 386.731 106.974C386.289 107.533 386.027 108.204 385.946 108.985H391.471V108.986Z" fill="white"/>
<path d="M303.042 89.9498C303.042 91.3776 302.603 92.4524 301.726 93.1741C300.913 93.8401 299.759 94.1737 298.263 94.1737C297.522 94.1737 296.887 94.1422 296.356 94.0791V86.2778C297.049 86.1686 297.795 86.1128 298.601 86.1128C300.026 86.1128 301.1 86.4148 301.824 87.019C302.635 87.7019 303.042 88.6785 303.042 89.9498ZM301.667 89.9849C301.667 89.0594 301.416 88.3497 300.913 87.8548C300.411 87.361 299.676 87.1136 298.71 87.1136C298.299 87.1136 297.95 87.1403 297.66 87.1961V93.1268C297.82 93.1511 298.114 93.162 298.541 93.162C299.538 93.162 300.309 92.8915 300.851 92.3505C301.393 91.8094 301.667 91.0209 301.667 89.9849Z" fill="white"/>
<path d="M310.332 91.1968C310.332 92.0763 310.074 92.7969 309.559 93.3622C309.019 93.9432 308.304 94.2332 307.41 94.2332C306.549 94.2332 305.864 93.9554 305.352 93.3973C304.842 92.8405 304.587 92.1382 304.587 91.2914C304.587 90.4059 304.85 89.6792 305.377 89.1152C305.905 88.5511 306.614 88.2684 307.507 88.2684C308.368 88.2684 309.06 88.5462 309.584 89.103C310.082 89.6441 310.332 90.3428 310.332 91.1968ZM308.979 91.2381C308.979 90.7104 308.862 90.2579 308.63 89.8806C308.356 89.4245 307.966 89.1964 307.46 89.1964C306.936 89.1964 306.538 89.4245 306.264 89.8806C306.031 90.2579 305.915 90.7176 305.915 91.2611C305.915 91.7888 306.032 92.2413 306.264 92.6185C306.547 93.0747 306.94 93.3027 307.448 93.3027C307.945 93.3027 308.336 93.071 308.617 92.6064C308.859 92.2219 308.979 91.7658 308.979 91.2381Z" fill="white"/>
<path d="M320.106 88.3849L318.271 94.1034H317.076L316.316 91.6202C316.123 91.0003 315.967 90.384 315.845 89.7727H315.821C315.708 90.401 315.551 91.0161 315.349 91.6202L314.542 94.1034H313.334L311.608 88.3849H312.948L313.611 91.1034C313.772 91.7463 313.904 92.3589 314.01 92.9388H314.033C314.13 92.4608 314.291 91.8519 314.517 91.1155L315.349 88.3861H316.412L317.21 91.0573C317.402 91.7087 317.559 92.3359 317.68 92.94H317.716C317.804 92.3517 317.937 91.7245 318.114 91.0573L318.826 88.3861H320.106V88.3849Z" fill="white"/>
<path d="M326.866 94.1034H325.562V90.828C325.562 89.8188 325.169 89.3141 324.38 89.3141C323.993 89.3141 323.681 89.4524 323.438 89.7302C323.198 90.008 323.076 90.3355 323.076 90.7104V94.1022H321.772V90.0189C321.772 89.5167 321.756 88.972 321.725 88.3825H322.871L322.932 89.2765H322.968C323.119 88.9987 323.346 88.7694 323.643 88.5863C323.997 88.3728 324.392 88.2648 324.825 88.2648C325.373 88.2648 325.828 88.4371 326.19 88.7828C326.64 89.2062 326.866 89.8382 326.866 90.6776V94.1034Z" fill="white"/>
<path d="M330.461 94.1034H329.159V85.761H330.461V94.1034Z" fill="white"/>
<path d="M338.138 91.1968C338.138 92.0763 337.881 92.7969 337.365 93.3622C336.825 93.9432 336.109 94.2332 335.217 94.2332C334.354 94.2332 333.669 93.9554 333.159 93.3973C332.649 92.8405 332.394 92.1382 332.394 91.2914C332.394 90.4059 332.656 89.6792 333.184 89.1152C333.711 88.5511 334.42 88.2684 335.312 88.2684C336.175 88.2684 336.865 88.5462 337.39 89.103C337.888 89.6441 338.138 90.3428 338.138 91.1968ZM336.784 91.2381C336.784 90.7104 336.667 90.2579 336.435 89.8806C336.162 89.4245 335.772 89.1964 335.266 89.1964C334.741 89.1964 334.343 89.4245 334.071 89.8806C333.837 90.2579 333.721 90.7176 333.721 91.2611C333.721 91.7888 333.838 92.2413 334.071 92.6185C334.353 93.0747 334.746 93.3027 335.254 93.3027C335.752 93.3027 336.141 93.071 336.422 92.6064C336.665 92.2219 336.784 91.7658 336.784 91.2381Z" fill="white"/>
<path d="M344.449 94.1034H343.278L343.181 93.4447H343.145C342.744 93.9699 342.173 94.2332 341.431 94.2332C340.878 94.2332 340.43 94.0597 340.093 93.7152C339.787 93.4022 339.634 93.0128 339.634 92.5506C339.634 91.8519 339.932 91.3193 340.533 90.9506C341.133 90.5818 341.976 90.401 343.063 90.4095V90.3028C343.063 89.5494 342.657 89.1734 341.844 89.1734C341.266 89.1734 340.756 89.3153 340.315 89.5968L340.05 88.7622C340.595 88.4334 341.268 88.2684 342.062 88.2684C343.595 88.2684 344.364 89.0569 344.364 90.6339V92.7399C344.364 93.3112 344.393 93.7661 344.449 94.1034ZM343.095 92.1382V91.2563C341.657 91.232 340.937 91.6165 340.937 92.4087C340.937 92.7071 341.02 92.9303 341.188 93.0795C341.356 93.2287 341.57 93.3027 341.825 93.3027C342.111 93.3027 342.378 93.2142 342.622 93.0383C342.867 92.8612 343.018 92.6367 343.074 92.3614C343.087 92.2995 343.095 92.2243 343.095 92.1382Z" fill="white"/>
<path d="M351.858 94.1034H350.701L350.64 93.1851H350.604C350.234 93.8838 349.604 94.2332 348.72 94.2332C348.013 94.2332 347.425 93.9626 346.958 93.4216C346.492 92.8806 346.259 92.1782 346.259 91.3157C346.259 90.3901 346.511 89.6404 347.019 89.0679C347.511 88.5341 348.113 88.2672 348.829 88.2672C349.617 88.2672 350.168 88.5256 350.482 89.0436H350.507V85.761H351.812V92.5627C351.812 93.1196 351.827 93.6327 351.858 94.1034ZM350.507 91.6918V90.7383C350.507 90.5733 350.494 90.4398 350.47 90.338C350.397 90.0323 350.239 89.7751 349.999 89.5676C349.756 89.3602 349.464 89.2559 349.127 89.2559C348.64 89.2559 348.26 89.4439 347.98 89.8212C347.702 90.1984 347.562 90.68 347.562 91.2684C347.562 91.8337 347.695 92.2922 347.962 92.6452C348.245 93.0213 348.625 93.2093 349.102 93.2093C349.53 93.2093 349.872 93.0528 350.132 92.7386C350.383 92.4487 350.507 92.0993 350.507 91.6918Z" fill="white"/>
<path d="M363.009 91.1968C363.009 92.0763 362.752 92.7969 362.237 93.3622C361.697 93.9432 360.983 94.2332 360.088 94.2332C359.228 94.2332 358.543 93.9554 358.03 93.3973C357.52 92.8405 357.265 92.1382 357.265 91.2914C357.265 90.4059 357.527 89.6792 358.055 89.1152C358.583 88.5511 359.292 88.2684 360.186 88.2684C361.046 88.2684 361.739 88.5462 362.262 89.103C362.759 89.6441 363.009 90.3428 363.009 91.1968ZM361.658 91.2381C361.658 90.7104 361.541 90.2579 361.309 89.8806C361.034 89.4245 360.645 89.1964 360.138 89.1964C359.615 89.1964 359.217 89.4245 358.942 89.8806C358.708 90.2579 358.593 90.7176 358.593 91.2611C358.593 91.7888 358.709 92.2413 358.942 92.6185C359.225 93.0747 359.618 93.3027 360.125 93.3027C360.623 93.3027 361.015 93.071 361.296 92.6064C361.536 92.2219 361.658 91.7658 361.658 91.2381Z" fill="white"/>
<path d="M370.02 94.1034H368.718V90.828C368.718 89.8188 368.325 89.3141 367.534 89.3141C367.148 89.3141 366.835 89.4524 366.594 89.7302C366.353 90.008 366.232 90.3355 366.232 90.7104V94.1022H364.927V90.0189C364.927 89.5167 364.912 88.972 364.881 88.3825H366.025L366.086 89.2765H366.122C366.275 88.9987 366.502 88.7694 366.798 88.5863C367.153 88.3728 367.547 88.2648 367.981 88.2648C368.527 88.2648 368.983 88.4371 369.345 88.7828C369.796 89.2062 370.02 89.8382 370.02 90.6776V94.1034Z" fill="white"/>
<path d="M378.796 89.3372H377.36V92.1151C377.36 92.8211 377.615 93.1741 378.12 93.1741C378.354 93.1741 378.548 93.1547 378.701 93.1147L378.735 94.0791C378.477 94.1737 378.139 94.221 377.722 94.221C377.207 94.221 376.806 94.0682 376.516 93.7625C376.225 93.4568 376.081 92.9424 376.081 92.2207V89.3372H375.224V88.3849H376.081V87.3368L377.359 86.9607V88.3837H378.794V89.3372H378.796Z" fill="white"/>
<path d="M385.698 94.1034H384.393V90.8523C384.393 89.8272 384 89.3141 383.212 89.3141C382.608 89.3141 382.195 89.6113 381.968 90.2057C381.93 90.3307 381.907 90.4835 381.907 90.6631V94.1021H380.605V85.761H381.907V89.2074H381.932C382.343 88.5802 382.931 88.2672 383.694 88.2672C384.234 88.2672 384.681 88.4395 385.035 88.7852C385.477 89.2158 385.698 89.8564 385.698 90.7031V94.1034Z" fill="white"/>
<path d="M392.819 90.9736C392.819 91.2017 392.801 91.3933 392.77 91.5498H388.86C388.877 92.1151 389.064 92.5458 389.426 92.8442C389.757 93.1111 390.184 93.2445 390.706 93.2445C391.285 93.2445 391.812 93.1547 392.288 92.974L392.492 93.8571C391.935 94.0924 391.281 94.2101 390.523 94.2101C389.615 94.2101 388.9 93.9493 388.382 93.4277C387.862 92.906 387.604 92.2061 387.604 91.3278C387.604 90.4653 387.845 89.7472 388.329 89.1746C388.834 88.5632 389.517 88.2575 390.379 88.2575C391.223 88.2575 391.863 88.5632 392.296 89.1746C392.646 89.6598 392.819 90.2603 392.819 90.9736ZM391.575 90.6449C391.585 90.2676 391.499 89.9425 391.322 89.6683C391.096 89.3153 390.751 89.1382 390.284 89.1382C389.859 89.1382 389.512 89.3105 389.247 89.6562C389.03 89.9316 388.902 90.2603 388.86 90.6449H391.575Z" fill="white"/>
<path d="M1.68 90V72.72H12.96V75.768H4.944V79.464H11.52V82.512H4.944V86.952H12.96V90H1.68ZM21.0923 90.36C19.9003 90.36 18.8563 90.06 17.9603 89.46C17.0643 88.86 16.3643 88.044 15.8603 87.012C15.3643 85.98 15.1163 84.816 15.1163 83.52C15.1163 82.2 15.3683 81.028 15.8723 80.004C16.3843 78.972 17.1003 78.16 18.0203 77.568C18.9403 76.976 20.0203 76.68 21.2603 76.68C22.4923 76.68 23.5283 76.98 24.3683 77.58C25.2083 78.18 25.8443 78.996 26.2762 80.028C26.7083 81.06 26.9243 82.224 26.9243 83.52C26.9243 84.816 26.7043 85.98 26.2643 87.012C25.8323 88.044 25.1843 88.86 24.3203 89.46C23.4563 90.06 22.3803 90.36 21.0923 90.36ZM21.6203 87.456C22.3483 87.456 22.9283 87.292 23.3603 86.964C23.8003 86.636 24.1163 86.176 24.3083 85.584C24.5003 84.992 24.5963 84.304 24.5963 83.52C24.5963 82.736 24.5003 82.048 24.3083 81.456C24.1163 80.864 23.8083 80.404 23.3843 80.076C22.9683 79.748 22.4203 79.584 21.7403 79.584C21.0123 79.584 20.4123 79.764 19.9403 80.124C19.4763 80.476 19.1323 80.952 18.9083 81.552C18.6843 82.144 18.5723 82.8 18.5723 83.52C18.5723 84.248 18.6803 84.912 18.8963 85.512C19.1123 86.104 19.4443 86.576 19.8923 86.928C20.3403 87.28 20.9163 87.456 21.6203 87.456ZM24.5963 90V81.12H24.1883V72.72H27.4763V90H24.5963ZM31.0763 75.24V72.36H34.3403V75.24H31.0763ZM31.0763 90V77.04H34.3403V90H31.0763ZM45.7138 90C44.8178 90.168 43.9378 90.24 43.0738 90.216C42.2178 90.2 41.4498 90.052 40.7698 89.772C40.0978 89.484 39.5858 89.024 39.2338 88.392C38.9138 87.8 38.7458 87.2 38.7298 86.592C38.7138 85.976 38.7058 85.28 38.7058 84.504V73.44H41.9698V84.312C41.9698 84.816 41.9738 85.272 41.9818 85.68C41.9978 86.08 42.0818 86.4 42.2338 86.64C42.5218 87.096 42.9818 87.344 43.6138 87.384C44.2458 87.424 44.9458 87.392 45.7138 87.288V90ZM36.4978 79.56V77.04H45.7138V79.56H36.4978ZM53.7308 90.36C52.4268 90.36 51.2828 90.068 50.2988 89.484C49.3148 88.9 48.5468 88.096 47.9948 87.072C47.4508 86.04 47.1788 84.856 47.1788 83.52C47.1788 82.168 47.4588 80.98 48.0188 79.956C48.5788 78.924 49.3508 78.12 50.3348 77.544C51.3188 76.968 52.4508 76.68 53.7308 76.68C55.0348 76.68 56.1788 76.972 57.1628 77.556C58.1548 78.14 58.9268 78.948 59.4788 79.98C60.0308 81.004 60.3068 82.184 60.3068 83.52C60.3068 84.864 60.0268 86.052 59.4668 87.084C58.9148 88.108 58.1428 88.912 57.1508 89.496C56.1668 90.072 55.0268 90.36 53.7308 90.36ZM53.7308 87.312C54.7788 87.312 55.5588 86.96 56.0708 86.256C56.5908 85.544 56.8508 84.632 56.8508 83.52C56.8508 82.368 56.5868 81.448 56.0588 80.76C55.5388 80.072 54.7628 79.728 53.7308 79.728C53.0188 79.728 52.4348 79.888 51.9788 80.208C51.5228 80.528 51.1828 80.972 50.9588 81.54C50.7428 82.108 50.6348 82.768 50.6348 83.52C50.6348 84.68 50.8948 85.604 51.4148 86.292C51.9428 86.972 52.7148 87.312 53.7308 87.312ZM62.9456 90V77.04H65.8256V80.208L65.5136 79.8C65.6816 79.352 65.9056 78.944 66.1856 78.576C66.4656 78.208 66.8096 77.904 67.2176 77.664C67.5296 77.472 67.8696 77.324 68.2376 77.22C68.6056 77.108 68.9856 77.04 69.3776 77.016C69.7696 76.984 70.1616 76.992 70.5536 77.04V80.088C70.1936 79.976 69.7736 79.94 69.2936 79.98C68.8216 80.012 68.3936 80.12 68.0096 80.304C67.6256 80.48 67.3016 80.716 67.0376 81.012C66.7736 81.3 66.5736 81.644 66.4376 82.044C66.3016 82.436 66.2336 82.88 66.2336 83.376V90H62.9456ZM73.3163 79.224L73.5083 77.856C73.8923 77.888 74.2043 77.828 74.4443 77.676C74.6843 77.516 74.8483 77.292 74.9363 77.004C75.0323 76.708 75.0523 76.368 74.9963 75.984H73.3163V72.72H76.5803V75.984C76.5803 77.136 76.3123 78.008 75.7763 78.6C75.2403 79.192 74.4203 79.4 73.3163 79.224ZM83.2909 90.36C81.6589 90.36 80.3389 89.992 79.3309 89.256C78.3309 88.512 77.7229 87.464 77.5069 86.112L80.8429 85.608C80.9789 86.216 81.2789 86.692 81.7429 87.036C82.2149 87.38 82.8109 87.552 83.5309 87.552C84.1229 87.552 84.5789 87.44 84.8989 87.216C85.2189 86.984 85.3789 86.664 85.3789 86.256C85.3789 86 85.3149 85.796 85.1869 85.644C85.0589 85.484 84.7709 85.328 84.3229 85.176C83.8829 85.024 83.1949 84.824 82.2589 84.576C81.2029 84.304 80.3589 84 79.7269 83.664C79.0949 83.328 78.6389 82.928 78.3589 82.464C78.0789 81.992 77.9389 81.424 77.9389 80.76C77.9389 79.928 78.1509 79.208 78.5749 78.6C78.9989 77.984 79.5949 77.512 80.3629 77.184C81.1389 76.848 82.0509 76.68 83.0989 76.68C84.1149 76.68 85.0149 76.836 85.7989 77.148C86.5829 77.46 87.2149 77.904 87.6949 78.48C88.1829 79.056 88.4829 79.736 88.5949 80.52L85.2589 81.12C85.2029 80.64 84.9949 80.26 84.6349 79.98C84.2749 79.7 83.7869 79.536 83.1709 79.488C82.5709 79.448 82.0869 79.528 81.7189 79.728C81.3589 79.928 81.1789 80.216 81.1789 80.592C81.1789 80.816 81.2549 81.004 81.4069 81.156C81.5669 81.308 81.8909 81.464 82.3789 81.624C82.8749 81.784 83.6269 81.992 84.6349 82.248C85.6189 82.504 86.4069 82.804 86.9989 83.148C87.5989 83.484 88.0349 83.892 88.3069 84.372C88.5789 84.844 88.7149 85.416 88.7149 86.088C88.7149 87.416 88.2349 88.46 87.2749 89.22C86.3149 89.98 84.9869 90.36 83.2909 90.36ZM103.573 90.36C101.845 90.36 100.353 89.984 99.0966 89.232C97.8486 88.48 96.8846 87.428 96.2046 86.076C95.5326 84.724 95.1966 83.152 95.1966 81.36C95.1966 79.568 95.5326 77.996 96.2046 76.644C96.8846 75.292 97.8486 74.24 99.0966 73.488C100.353 72.736 101.845 72.36 103.573 72.36C105.557 72.36 107.221 72.852 108.565 73.836C109.917 74.82 110.869 76.152 111.421 77.832L108.133 78.744C107.813 77.696 107.273 76.884 106.513 76.308C105.753 75.724 104.773 75.432 103.573 75.432C102.477 75.432 101.561 75.676 100.825 76.164C100.097 76.652 99.5486 77.34 99.1806 78.228C98.8126 79.116 98.6286 80.16 98.6286 81.36C98.6286 82.56 98.8126 83.604 99.1806 84.492C99.5486 85.38 100.097 86.068 100.825 86.556C101.561 87.044 102.477 87.288 103.573 87.288C104.773 87.288 105.753 86.996 106.513 86.412C107.273 85.828 107.813 85.016 108.133 83.976L111.421 84.888C110.869 86.568 109.917 87.9 108.565 88.884C107.221 89.868 105.557 90.36 103.573 90.36ZM122.895 90V83.88C122.895 83.584 122.879 83.208 122.847 82.752C122.815 82.288 122.715 81.824 122.547 81.36C122.379 80.896 122.103 80.508 121.719 80.196C121.343 79.884 120.807 79.728 120.111 79.728C119.831 79.728 119.531 79.772 119.211 79.86C118.891 79.948 118.591 80.12 118.311 80.376C118.031 80.624 117.799 80.992 117.615 81.48C117.439 81.968 117.351 82.616 117.351 83.424L115.479 82.536C115.479 81.512 115.687 80.552 116.103 79.656C116.519 78.76 117.143 78.036 117.975 77.484C118.815 76.932 119.871 76.656 121.143 76.656C122.159 76.656 122.987 76.828 123.627 77.172C124.267 77.516 124.763 77.952 125.115 78.48C125.475 79.008 125.731 79.56 125.883 80.136C126.035 80.704 126.127 81.224 126.159 81.696C126.191 82.168 126.207 82.512 126.207 82.728V90H122.895ZM114.039 90V72.72H116.943V81.6H117.351V90H114.039ZM135.153 90.36C133.849 90.36 132.705 90.068 131.721 89.484C130.737 88.9 129.969 88.096 129.417 87.072C128.873 86.04 128.601 84.856 128.601 83.52C128.601 82.168 128.881 80.98 129.441 79.956C130.001 78.924 130.773 78.12 131.757 77.544C132.741 76.968 133.873 76.68 135.153 76.68C136.457 76.68 137.601 76.972 138.585 77.556C139.577 78.14 140.349 78.948 140.901 79.98C141.453 81.004 141.729 82.184 141.729 83.52C141.729 84.864 141.449 86.052 140.889 87.084C140.337 88.108 139.565 88.912 138.573 89.496C137.589 90.072 136.449 90.36 135.153 90.36ZM135.153 87.312C136.201 87.312 136.981 86.96 137.493 86.256C138.013 85.544 138.273 84.632 138.273 83.52C138.273 82.368 138.009 81.448 137.481 80.76C136.961 80.072 136.185 79.728 135.153 79.728C134.441 79.728 133.857 79.888 133.401 80.208C132.945 80.528 132.605 80.972 132.381 81.54C132.165 82.108 132.057 82.768 132.057 83.52C132.057 84.68 132.317 85.604 132.837 86.292C133.365 86.972 134.137 87.312 135.153 87.312ZM144.608 75.24V72.36H147.872V75.24H144.608ZM144.608 90V77.04H147.872V90H144.608ZM157.181 90.36C155.837 90.36 154.685 90.06 153.725 89.46C152.765 88.86 152.029 88.044 151.517 87.012C151.005 85.98 150.749 84.816 150.749 83.52C150.749 82.208 151.013 81.036 151.541 80.004C152.077 78.972 152.829 78.16 153.797 77.568C154.765 76.976 155.909 76.68 157.229 76.68C158.757 76.68 160.037 77.068 161.069 77.844C162.109 78.612 162.773 79.664 163.061 81L159.797 81.864C159.605 81.192 159.269 80.668 158.789 80.292C158.317 79.916 157.781 79.728 157.181 79.728C156.493 79.728 155.929 79.896 155.489 80.232C155.049 80.56 154.725 81.012 154.517 81.588C154.309 82.156 154.205 82.8 154.205 83.52C154.205 84.648 154.453 85.564 154.949 86.268C155.453 86.964 156.197 87.312 157.181 87.312C157.917 87.312 158.477 87.144 158.861 86.808C159.245 86.472 159.533 85.992 159.725 85.368L163.061 86.064C162.693 87.44 161.997 88.5 160.973 89.244C159.949 89.988 158.685 90.36 157.181 90.36ZM171.134 90.36C169.806 90.36 168.634 90.076 167.618 89.508C166.61 88.932 165.818 88.144 165.242 87.144C164.674 86.136 164.39 84.984 164.39 83.688C164.39 82.272 164.67 81.04 165.23 79.992C165.79 78.944 166.562 78.132 167.546 77.556C168.53 76.972 169.662 76.68 170.942 76.68C172.302 76.68 173.458 77 174.41 77.64C175.362 78.28 176.066 79.18 176.522 80.34C176.978 81.5 177.138 82.864 177.002 84.432H173.774V83.232C173.774 81.912 173.562 80.964 173.138 80.388C172.722 79.804 172.038 79.512 171.086 79.512C169.974 79.512 169.154 79.852 168.626 80.532C168.106 81.204 167.846 82.2 167.846 83.52C167.846 84.728 168.106 85.664 168.626 86.328C169.154 86.984 169.926 87.312 170.942 87.312C171.582 87.312 172.13 87.172 172.586 86.892C173.042 86.612 173.39 86.208 173.63 85.68L176.894 86.616C176.406 87.8 175.634 88.72 174.578 89.376C173.53 90.032 172.382 90.36 171.134 90.36ZM166.838 84.432V82.008H175.43V84.432H166.838Z" fill="#0B0F19"/>
<path d="M1.12 121V112.36H2.176V114.44L1.968 114.168C2.064 113.912 2.18933 113.677 2.344 113.464C2.49867 113.245 2.66667 113.067 2.848 112.928C3.072 112.731 3.33333 112.581 3.632 112.48C3.93067 112.373 4.232 112.312 4.536 112.296C4.84 112.275 5.11733 112.296 5.368 112.36V113.464C5.05333 113.384 4.70933 113.365 4.336 113.408C3.96267 113.451 3.61867 113.6 3.304 113.856C3.016 114.08 2.8 114.349 2.656 114.664C2.512 114.973 2.416 115.304 2.368 115.656C2.32 116.003 2.296 116.347 2.296 116.688V121H1.12ZM9.0295 121.24C8.37883 121.24 7.83217 121.123 7.3895 120.888C6.95217 120.653 6.62417 120.341 6.4055 119.952C6.18683 119.563 6.0775 119.139 6.0775 118.68C6.0775 118.211 6.17083 117.811 6.3575 117.48C6.5495 117.144 6.80817 116.869 7.1335 116.656C7.46417 116.443 7.8455 116.28 8.2775 116.168C8.71483 116.061 9.1975 115.968 9.7255 115.888C10.2588 115.803 10.7788 115.731 11.2855 115.672C11.7975 115.608 12.2455 115.547 12.6295 115.488L12.2135 115.744C12.2295 114.891 12.0642 114.259 11.7175 113.848C11.3708 113.437 10.7682 113.232 9.9095 113.232C9.3175 113.232 8.81617 113.365 8.4055 113.632C8.00017 113.899 7.71483 114.32 7.5495 114.896L6.4055 114.56C6.60283 113.787 7.00017 113.187 7.5975 112.76C8.19483 112.333 8.97083 112.12 9.9255 112.12C10.7148 112.12 11.3842 112.269 11.9335 112.568C12.4882 112.861 12.8802 113.288 13.1095 113.848C13.2162 114.099 13.2855 114.379 13.3175 114.688C13.3495 114.997 13.3655 115.312 13.3655 115.632V121H12.3175V118.832L12.6215 118.96C12.3282 119.701 11.8722 120.267 11.2535 120.656C10.6348 121.045 9.8935 121.24 9.0295 121.24ZM9.1655 120.224C9.71483 120.224 10.1948 120.125 10.6055 119.928C11.0162 119.731 11.3468 119.461 11.5975 119.12C11.8482 118.773 12.0108 118.384 12.0855 117.952C12.1495 117.675 12.1842 117.371 12.1895 117.04C12.1948 116.704 12.1975 116.453 12.1975 116.288L12.6455 116.52C12.2455 116.573 11.8108 116.627 11.3415 116.68C10.8775 116.733 10.4188 116.795 9.9655 116.864C9.5175 116.933 9.11217 117.016 8.7495 117.112C8.50417 117.181 8.26683 117.28 8.0375 117.408C7.80817 117.531 7.61883 117.696 7.4695 117.904C7.3255 118.112 7.2535 118.371 7.2535 118.68C7.2535 118.931 7.31483 119.173 7.4375 119.408C7.5655 119.643 7.76817 119.837 8.0455 119.992C8.32817 120.147 8.7015 120.224 9.1655 120.224ZM20.1521 121C19.6668 121.101 19.1868 121.141 18.7121 121.12C18.2428 121.099 17.8215 120.997 17.4481 120.816C17.0801 120.635 16.8001 120.352 16.6081 119.968C16.4535 119.648 16.3681 119.325 16.3521 119C16.3415 118.669 16.3361 118.293 16.3361 117.872V109.96H17.5041V117.824C17.5041 118.187 17.5068 118.491 17.5121 118.736C17.5228 118.976 17.5788 119.189 17.6801 119.376C17.8721 119.733 18.1761 119.947 18.5921 120.016C19.0135 120.085 19.5335 120.069 20.1521 119.968V121ZM14.4881 113.368V112.36H20.1521V113.368H14.4881ZM22.0144 110.72V109.4H23.1904V110.72H22.0144ZM22.0144 121V112.36H23.1904V121H22.0144ZM31.8288 121V116.592C31.8288 116.112 31.7834 115.672 31.6928 115.272C31.6021 114.867 31.4554 114.515 31.2528 114.216C31.0554 113.912 30.7968 113.677 30.4768 113.512C30.1621 113.347 29.7781 113.264 29.3248 113.264C28.9088 113.264 28.5408 113.336 28.2208 113.48C27.9061 113.624 27.6394 113.832 27.4208 114.104C27.2074 114.371 27.0448 114.696 26.9328 115.08C26.8208 115.464 26.7648 115.901 26.7648 116.392L25.9328 116.208C25.9328 115.323 26.0874 114.579 26.3968 113.976C26.7061 113.373 27.1328 112.917 27.6768 112.608C28.2208 112.299 28.8448 112.144 29.5488 112.144C30.0661 112.144 30.5168 112.224 30.9008 112.384C31.2901 112.544 31.6181 112.76 31.8848 113.032C32.1568 113.304 32.3754 113.616 32.5408 113.968C32.7061 114.315 32.8261 114.685 32.9008 115.08C32.9754 115.469 33.0128 115.859 33.0128 116.248V121H31.8288ZM25.5808 121V112.36H26.6448V114.488H26.7648V121H25.5808ZM38.5208 125.08C38.0781 125.08 37.6408 125.013 37.2088 124.88C36.7821 124.752 36.3874 124.547 36.0247 124.264C35.6621 123.987 35.3581 123.624 35.1128 123.176L36.1768 122.584C36.4168 123.064 36.7528 123.408 37.1848 123.616C37.6221 123.829 38.0674 123.936 38.5208 123.936C39.1448 123.936 39.6488 123.819 40.0328 123.584C40.4221 123.355 40.7048 123.013 40.8808 122.56C41.0568 122.107 41.1421 121.541 41.1368 120.864V118.56H41.2728V112.36H42.3208V120.88C42.3208 121.125 42.3128 121.36 42.2968 121.584C42.2861 121.813 42.2621 122.037 42.2248 122.256C42.1234 122.901 41.9128 123.432 41.5928 123.848C41.2781 124.264 40.8621 124.573 40.3448 124.776C39.8328 124.979 39.2248 125.08 38.5208 125.08ZM38.4408 121.24C37.6354 121.24 36.9474 121.04 36.3768 120.64C35.8061 120.235 35.3688 119.688 35.0648 119C34.7608 118.312 34.6088 117.536 34.6088 116.672C34.6088 115.813 34.7581 115.04 35.0568 114.352C35.3608 113.664 35.7954 113.12 36.3608 112.72C36.9261 112.32 37.6034 112.12 38.3928 112.12C39.2034 112.12 39.8861 112.317 40.4408 112.712C40.9954 113.107 41.4141 113.648 41.6968 114.336C41.9848 115.019 42.1288 115.797 42.1288 116.672C42.1288 117.531 41.9874 118.307 41.7048 119C41.4221 119.688 41.0061 120.235 40.4568 120.64C39.9074 121.04 39.2354 121.24 38.4408 121.24ZM38.5608 120.144C39.1741 120.144 39.6808 119.995 40.0808 119.696C40.4808 119.397 40.7794 118.987 40.9768 118.464C41.1741 117.936 41.2728 117.339 41.2728 116.672C41.2728 115.995 41.1741 115.397 40.9768 114.88C40.7794 114.357 40.4808 113.949 40.0808 113.656C39.6861 113.363 39.1874 113.216 38.5848 113.216C37.9661 113.216 37.4541 113.368 37.0488 113.672C36.6434 113.976 36.3421 114.389 36.1448 114.912C35.9528 115.435 35.8568 116.021 35.8568 116.672C35.8568 117.328 35.9554 117.92 36.1528 118.448C36.3554 118.971 36.6568 119.384 37.0568 119.688C37.4568 119.992 37.9581 120.144 38.5608 120.144ZM52.8326 121V118.768H47.4406V117.648L51.2966 109.48H52.6166L48.7606 117.648H52.8326V114.288H54.0166V117.648H55.2726V118.768H54.0166V121H52.8326ZM57.1096 121V119.632H58.4776V121H57.1096ZM61.5641 121L65.8041 110.624H60.4681V109.48H67.0601V110.624L62.8281 121H61.5641ZM67.7569 122.672L67.8289 122.088C68.0422 122.104 68.1969 122.061 68.2929 121.96C68.3889 121.859 68.4475 121.723 68.4689 121.552C68.4902 121.381 68.4955 121.197 68.4849 121H67.7569V119.312H69.1249V121.32C69.1249 121.811 68.9995 122.179 68.7489 122.424C68.5035 122.669 68.1729 122.752 67.7569 122.672ZM77.378 121V110.792L75.21 112.096V110.776L77.378 109.48H78.57V121H77.378ZM85.1164 121.24C84.3964 121.24 83.759 121.096 83.2044 120.808C82.655 120.52 82.223 120.117 81.9084 119.6C81.599 119.077 81.4444 118.467 81.4444 117.768C81.4444 117.053 81.6177 116.419 81.9644 115.864C82.311 115.304 82.839 114.88 83.5484 114.592L83.5324 115.056C82.9404 114.837 82.4897 114.48 82.1804 113.984C81.871 113.488 81.7164 112.939 81.7164 112.336C81.7164 111.696 81.863 111.147 82.1564 110.688C82.4497 110.224 82.8497 109.867 83.3564 109.616C83.8684 109.365 84.455 109.24 85.1164 109.24C85.7777 109.24 86.3644 109.365 86.8764 109.616C87.3884 109.867 87.791 110.224 88.0844 110.688C88.3777 111.147 88.5244 111.696 88.5244 112.336C88.5244 112.939 88.375 113.485 88.0764 113.976C87.783 114.467 87.3324 114.827 86.7244 115.056L86.6844 114.592C87.3937 114.875 87.9244 115.296 88.2764 115.856C88.6337 116.416 88.8124 117.053 88.8124 117.768C88.8124 118.467 88.655 119.077 88.3404 119.6C88.0257 120.117 87.591 120.52 87.0364 120.808C86.4817 121.096 85.8417 121.24 85.1164 121.24ZM85.1164 120.112C85.8417 120.112 86.431 119.912 86.8844 119.512C87.3377 119.107 87.5644 118.525 87.5644 117.768C87.5644 117 87.3404 116.419 86.8924 116.024C86.4444 115.624 85.8524 115.424 85.1164 115.424C84.3804 115.424 83.791 115.624 83.3484 116.024C82.9057 116.419 82.6844 117 82.6844 117.768C82.6844 118.525 82.9084 119.107 83.3564 119.512C83.8044 119.912 84.391 120.112 85.1164 120.112ZM85.1164 114.288C85.7564 114.288 86.2764 114.125 86.6764 113.8C87.0764 113.469 87.2764 112.981 87.2764 112.336C87.2764 111.691 87.0764 111.208 86.6764 110.888C86.2764 110.563 85.7564 110.4 85.1164 110.4C84.4764 110.4 83.9564 110.563 83.5564 110.888C83.1617 111.208 82.9644 111.691 82.9644 112.336C82.9644 112.981 83.1617 113.469 83.5564 113.8C83.9564 114.125 84.4764 114.288 85.1164 114.288ZM91.5016 121L95.7416 110.624H90.4056V109.48H96.9976V110.624L92.7656 121H91.5016ZM98.9169 121V109.48H100.093V114.92L105.349 109.48H106.853L101.485 115.04L107.293 121H105.757L100.093 115.24V121H98.9169ZM111.409 118.896V115.744H108.257V114.736H111.409V111.584H112.417V114.736H115.561V115.744H112.417V118.896H111.409ZM120.839 121V112.36H121.895V114.44L121.687 114.168C121.783 113.912 121.908 113.677 122.063 113.464C122.217 113.245 122.385 113.067 122.567 112.928C122.791 112.731 123.052 112.581 123.351 112.48C123.649 112.373 123.951 112.312 124.255 112.296C124.559 112.275 124.836 112.296 125.087 112.36V113.464C124.772 113.384 124.428 113.365 124.055 113.408C123.681 113.451 123.337 113.6 123.023 113.856C122.735 114.08 122.519 114.349 122.375 114.664C122.231 114.973 122.135 115.304 122.087 115.656C122.039 116.003 122.015 116.347 122.015 116.688V121H120.839ZM130.104 121.24C129.261 121.24 128.531 121.053 127.912 120.68C127.299 120.307 126.821 119.781 126.48 119.104C126.139 118.427 125.968 117.632 125.968 116.72C125.968 115.776 126.136 114.96 126.472 114.272C126.808 113.584 127.28 113.053 127.888 112.68C128.501 112.307 129.224 112.12 130.056 112.12C130.909 112.12 131.637 112.317 132.24 112.712C132.843 113.101 133.299 113.661 133.608 114.392C133.917 115.123 134.059 115.995 134.032 117.008H132.832V116.592C132.811 115.472 132.568 114.627 132.104 114.056C131.645 113.485 130.973 113.2 130.088 113.2C129.16 113.2 128.448 113.501 127.952 114.104C127.461 114.707 127.216 115.565 127.216 116.68C127.216 117.768 127.461 118.613 127.952 119.216C128.448 119.813 129.149 120.112 130.056 120.112C130.675 120.112 131.213 119.971 131.672 119.688C132.136 119.4 132.501 118.987 132.768 118.448L133.864 118.872C133.523 119.624 133.019 120.208 132.352 120.624C131.691 121.035 130.941 121.24 130.104 121.24ZM126.8 117.008V116.024H133.4V117.008H126.8ZM137.831 121L134.695 112.36H135.887L138.439 119.464L140.975 112.36H142.183L139.047 121H137.831ZM143.78 110.72V109.4H144.956V110.72H143.78ZM143.78 121V112.36H144.956V121H143.78ZM151.01 121.24C150.168 121.24 149.437 121.053 148.818 120.68C148.205 120.307 147.728 119.781 147.386 119.104C147.045 118.427 146.874 117.632 146.874 116.72C146.874 115.776 147.042 114.96 147.378 114.272C147.714 113.584 148.186 113.053 148.794 112.68C149.408 112.307 150.13 112.12 150.962 112.12C151.816 112.12 152.544 112.317 153.146 112.712C153.749 113.101 154.205 113.661 154.514 114.392C154.824 115.123 154.965 115.995 154.938 117.008H153.738V116.592C153.717 115.472 153.474 114.627 153.01 114.056C152.552 113.485 151.88 113.2 150.994 113.2C150.066 113.2 149.354 113.501 148.858 114.104C148.368 114.707 148.122 115.565 148.122 116.68C148.122 117.768 148.368 118.613 148.858 119.216C149.354 119.813 150.056 120.112 150.962 120.112C151.581 120.112 152.12 119.971 152.578 119.688C153.042 119.4 153.408 118.987 153.674 118.448L154.77 118.872C154.429 119.624 153.925 120.208 153.258 120.624C152.597 121.035 151.848 121.24 151.01 121.24ZM147.706 117.008V116.024H154.306V117.008H147.706ZM158.241 121L155.601 112.352L156.777 112.36L158.825 119.072L160.881 112.36H161.953L164.009 119.072L166.073 112.36H167.241L164.601 121H163.577L161.417 114.12L159.265 121H158.241ZM171.594 121.232C170.581 121.232 169.746 121.013 169.09 120.576C168.439 120.139 168.039 119.531 167.89 118.752L169.09 118.552C169.218 119.043 169.509 119.435 169.962 119.728C170.421 120.016 170.986 120.16 171.658 120.16C172.314 120.16 172.831 120.024 173.21 119.752C173.589 119.475 173.778 119.099 173.778 118.624C173.778 118.357 173.717 118.141 173.594 117.976C173.477 117.805 173.234 117.648 172.866 117.504C172.498 117.36 171.949 117.189 171.218 116.992C170.434 116.779 169.821 116.565 169.378 116.352C168.935 116.139 168.621 115.893 168.434 115.616C168.247 115.333 168.154 114.989 168.154 114.584C168.154 114.093 168.293 113.664 168.57 113.296C168.847 112.923 169.231 112.635 169.722 112.432C170.213 112.224 170.783 112.12 171.434 112.12C172.085 112.12 172.666 112.227 173.178 112.44C173.695 112.648 174.111 112.941 174.426 113.32C174.741 113.699 174.927 114.139 174.986 114.64L173.786 114.856C173.706 114.349 173.453 113.949 173.026 113.656C172.605 113.357 172.069 113.203 171.418 113.192C170.805 113.176 170.306 113.293 169.922 113.544C169.538 113.789 169.346 114.117 169.346 114.528C169.346 114.757 169.415 114.955 169.554 115.12C169.693 115.28 169.943 115.432 170.306 115.576C170.674 115.72 171.197 115.877 171.874 116.048C172.669 116.251 173.293 116.464 173.746 116.688C174.199 116.912 174.522 117.176 174.714 117.48C174.906 117.784 175.002 118.16 175.002 118.608C175.002 119.424 174.698 120.067 174.09 120.536C173.487 121 172.655 121.232 171.594 121.232Z" fill="#565973"/>
<path d="M12.8024 39.3544C12.7272 39.1339 12.5283 38.9781 12.2961 38.96L8.97053 38.6958L7.53145 35.5102C7.43753 35.3008 7.22928 35.1666 7.00003 35.1666C6.77078 35.1666 6.56253 35.3008 6.46861 35.5096L5.02953 38.6958L1.70395 38.96C1.47586 38.9781 1.27928 39.128 1.2017 39.3433C1.12411 39.5585 1.17895 39.7995 1.34286 39.9593L3.80045 42.355L2.93128 46.1187C2.87761 46.3515 2.97153 46.5935 3.16811 46.7295C3.26845 46.7983 3.38395 46.8333 3.50003 46.8333C3.61261 46.8333 3.72578 46.8006 3.82378 46.7353L7.00003 44.6178L10.1763 46.7353C10.3793 46.8706 10.6459 46.8654 10.8442 46.7213C11.0414 46.5772 11.1283 46.3246 11.0612 46.0901L9.99428 42.3568L12.6403 39.9756C12.8135 39.8193 12.8771 39.5755 12.8024 39.3544Z" fill="#FFBA08"/>
<path d="M28.8024 39.3544C28.7272 39.1339 28.5283 38.9781 28.2961 38.96L24.9705 38.6958L23.5314 35.5102C23.4375 35.3008 23.2293 35.1666 23 35.1666C22.7708 35.1666 22.5625 35.3008 22.4686 35.5096L21.0295 38.6958L17.7039 38.96C17.4759 38.9781 17.2793 39.128 17.2017 39.3433C17.1241 39.5585 17.1789 39.7995 17.3429 39.9593L19.8004 42.355L18.9313 46.1187C18.8776 46.3515 18.9715 46.5935 19.1681 46.7295C19.2684 46.7983 19.3839 46.8333 19.5 46.8333C19.6126 46.8333 19.7258 46.8006 19.8238 46.7353L23 44.6178L26.1763 46.7353C26.3793 46.8706 26.6459 46.8654 26.8442 46.7213C27.0414 46.5772 27.1283 46.3246 27.0612 46.0901L25.9943 42.3568L28.6403 39.9756C28.8135 39.8193 28.8771 39.5755 28.8024 39.3544Z" fill="#FFBA08"/>
<path d="M44.8024 39.3544C44.7272 39.1339 44.5283 38.9781 44.2961 38.96L40.9705 38.6958L39.5314 35.5102C39.4375 35.3008 39.2293 35.1666 39 35.1666C38.7708 35.1666 38.5625 35.3008 38.4686 35.5096L37.0295 38.6958L33.7039 38.96C33.4759 38.9781 33.2793 39.128 33.2017 39.3433C33.1241 39.5585 33.1789 39.7995 33.3429 39.9593L35.8004 42.355L34.9313 46.1187C34.8776 46.3515 34.9715 46.5935 35.1681 46.7295C35.2684 46.7983 35.3839 46.8333 35.5 46.8333C35.6126 46.8333 35.7258 46.8006 35.8238 46.7353L39 44.6178L42.1763 46.7353C42.3793 46.8706 42.6459 46.8654 42.8442 46.7213C43.0414 46.5772 43.1283 46.3246 43.0612 46.0901L41.9943 42.3568L44.6403 39.9756C44.8135 39.8193 44.8771 39.5755 44.8024 39.3544Z" fill="#FFBA08"/>
<path d="M60.8024 39.3544C60.7272 39.1339 60.5283 38.9781 60.2961 38.96L56.9705 38.6958L55.5314 35.5102C55.4375 35.3008 55.2293 35.1666 55 35.1666C54.7708 35.1666 54.5625 35.3008 54.4686 35.5096L53.0295 38.6958L49.7039 38.96C49.4759 38.9781 49.2793 39.128 49.2017 39.3433C49.1241 39.5585 49.1789 39.7995 49.3429 39.9593L51.8004 42.355L50.9313 46.1187C50.8776 46.3515 50.9715 46.5935 51.1681 46.7295C51.2684 46.7983 51.3839 46.8333 51.5 46.8333C51.6126 46.8333 51.7258 46.8006 51.8238 46.7353L55 44.6178L58.1763 46.7353C58.3793 46.8706 58.6459 46.8654 58.8442 46.7213C59.0414 46.5772 59.1283 46.3246 59.0612 46.0901L57.9943 42.3568L60.6403 39.9756C60.8135 39.8193 60.8771 39.5755 60.8024 39.3544Z" fill="#FFBA08"/>
<path d="M76.8024 39.3544C76.7272 39.1339 76.5283 38.9781 76.2961 38.96L72.9705 38.6958L71.5314 35.5102C71.4375 35.3008 71.2293 35.1666 71 35.1666C70.7708 35.1666 70.5625 35.3008 70.4686 35.5096L69.0295 38.6958L65.7039 38.96C65.4759 38.9781 65.2793 39.128 65.2017 39.3433C65.1241 39.5585 65.1789 39.7995 65.3429 39.9593L67.8004 42.355L66.9313 46.1187C66.8776 46.3515 66.9715 46.5935 67.1681 46.7295C67.2684 46.7983 67.3839 46.8333 67.5 46.8333C67.6126 46.8333 67.7258 46.8006 67.8238 46.7353L71 44.6178L74.1763 46.7353C74.3793 46.8706 74.6459 46.8654 74.8442 46.7213C75.0414 46.5772 75.1283 46.3246 75.0612 46.0901L73.9943 42.3568L76.6403 39.9756C76.8135 39.8193 76.8771 39.5755 76.8024 39.3544Z" fill="#FFBA08"/>
<path d="M0.32 19L4.288 7.48H5.848L9.816 19H8.592L4.824 8.136H5.288L1.544 19H0.32ZM2.088 16.208V15.104H8.04V16.208H2.088ZM15.1406 19.24C14.346 19.24 13.674 19.04 13.1246 18.64C12.5753 18.2347 12.1593 17.688 11.8766 17C11.594 16.3067 11.4526 15.5307 11.4526 14.672C11.4526 13.7973 11.594 13.0187 11.8766 12.336C12.1646 11.648 12.586 11.1067 13.1406 10.712C13.6953 10.3173 14.378 10.12 15.1886 10.12C15.978 10.12 16.6553 10.32 17.2206 10.72C17.786 11.12 18.218 11.664 18.5166 12.352C18.8206 13.04 18.9726 13.8133 18.9726 14.672C18.9726 15.536 18.8206 16.312 18.5166 17C18.2126 17.688 17.7753 18.2347 17.2046 18.64C16.634 19.04 15.946 19.24 15.1406 19.24ZM11.2526 22.84V10.36H12.3086V16.864H12.4366V22.84H11.2526ZM15.0206 18.144C15.6233 18.144 16.1246 17.992 16.5246 17.688C16.9246 17.384 17.2233 16.9707 17.4206 16.448C17.6233 15.92 17.7246 15.328 17.7246 14.672C17.7246 14.0213 17.626 13.4347 17.4286 12.912C17.2313 12.3893 16.93 11.976 16.5246 11.672C16.1246 11.368 15.6153 11.216 14.9966 11.216C14.394 11.216 13.8926 11.3627 13.4926 11.656C13.098 11.9493 12.802 12.3573 12.6046 12.88C12.4073 13.3973 12.3086 13.9947 12.3086 14.672C12.3086 15.3387 12.4073 15.936 12.6046 16.464C12.802 16.9867 13.1006 17.3973 13.5006 17.696C13.9006 17.9947 14.4073 18.144 15.0206 18.144ZM24.6094 19.24C23.8147 19.24 23.1427 19.04 22.5934 18.64C22.044 18.2347 21.628 17.688 21.3454 17C21.0627 16.3067 20.9214 15.5307 20.9214 14.672C20.9214 13.7973 21.0627 13.0187 21.3454 12.336C21.6334 11.648 22.0547 11.1067 22.6094 10.712C23.164 10.3173 23.8467 10.12 24.6574 10.12C25.4467 10.12 26.124 10.32 26.6894 10.72C27.2547 11.12 27.6867 11.664 27.9854 12.352C28.2894 13.04 28.4414 13.8133 28.4414 14.672C28.4414 15.536 28.2894 16.312 27.9854 17C27.6814 17.688 27.244 18.2347 26.6734 18.64C26.1027 19.04 25.4147 19.24 24.6094 19.24ZM20.7214 22.84V10.36H21.7774V16.864H21.9054V22.84H20.7214ZM24.4894 18.144C25.092 18.144 25.5934 17.992 25.9934 17.688C26.3934 17.384 26.692 16.9707 26.8894 16.448C27.092 15.92 27.1934 15.328 27.1934 14.672C27.1934 14.0213 27.0947 13.4347 26.8974 12.912C26.7 12.3893 26.3987 11.976 25.9934 11.672C25.5934 11.368 25.084 11.216 24.4654 11.216C23.8627 11.216 23.3614 11.3627 22.9614 11.656C22.5667 11.9493 22.2707 12.3573 22.0734 12.88C21.876 13.3973 21.7774 13.9947 21.7774 14.672C21.7774 15.3387 21.876 15.936 22.0734 16.464C22.2707 16.9867 22.5694 17.3973 22.9694 17.696C23.3694 17.9947 23.876 18.144 24.4894 18.144ZM37.4013 19.24C36.5959 19.24 35.8706 19.1067 35.2253 18.84C34.5853 18.568 34.0546 18.184 33.6333 17.688C33.2173 17.192 32.9453 16.6027 32.8173 15.92L34.0173 15.72C34.2093 16.4667 34.6146 17.0533 35.2333 17.48C35.8519 17.9013 36.5906 18.112 37.4493 18.112C38.0146 18.112 38.5213 18.024 38.9693 17.848C39.4173 17.6667 39.7693 17.4107 40.0253 17.08C40.2813 16.7493 40.4093 16.3573 40.4093 15.904C40.4093 15.6053 40.3559 15.352 40.2493 15.144C40.1426 14.9307 40.0013 14.7547 39.8253 14.616C39.6493 14.4773 39.4573 14.3627 39.2493 14.272C39.0413 14.176 38.8386 14.0987 38.6413 14.04L35.7213 13.168C35.3693 13.0667 35.0439 12.9387 34.7453 12.784C34.4466 12.624 34.1853 12.4347 33.9613 12.216C33.7426 11.992 33.5719 11.7307 33.4493 11.432C33.3266 11.1333 33.2653 10.792 33.2653 10.408C33.2653 9.75733 33.4359 9.19467 33.7773 8.72C34.1186 8.24533 34.5853 7.88 35.1773 7.624C35.7693 7.368 36.4439 7.24267 37.2013 7.248C37.9693 7.248 38.6546 7.384 39.2573 7.656C39.8653 7.928 40.3666 8.31733 40.7613 8.824C41.1559 9.32533 41.4173 9.92 41.5453 10.608L40.3133 10.832C40.2333 10.3307 40.0493 9.896 39.7613 9.528C39.4733 9.16 39.1053 8.87733 38.6573 8.68C38.2146 8.47733 37.7266 8.37333 37.1933 8.368C36.6759 8.368 36.2146 8.456 35.8093 8.632C35.4093 8.80267 35.0919 9.03733 34.8573 9.336C34.6226 9.63467 34.5053 9.976 34.5053 10.36C34.5053 10.7493 34.6119 11.0613 34.8253 11.296C35.0439 11.5307 35.3106 11.7147 35.6253 11.848C35.9453 11.9813 36.2546 12.0907 36.5533 12.176L38.8093 12.84C39.0439 12.904 39.3186 12.9973 39.6333 13.12C39.9533 13.2373 40.2626 13.408 40.5613 13.632C40.8653 13.8507 41.1159 14.1387 41.3133 14.496C41.5106 14.8533 41.6093 15.3067 41.6093 15.856C41.6093 16.3893 41.5026 16.8667 41.2893 17.288C41.0813 17.7093 40.7853 18.064 40.4013 18.352C40.0226 18.64 39.5773 18.8587 39.0653 19.008C38.5586 19.1627 38.0039 19.24 37.4013 19.24ZM47.9646 19C47.4793 19.1013 46.9993 19.1413 46.5246 19.12C46.0553 19.0987 45.634 18.9973 45.2606 18.816C44.8926 18.6347 44.6126 18.352 44.4206 17.968C44.266 17.648 44.1806 17.3253 44.1646 17C44.154 16.6693 44.1486 16.2933 44.1486 15.872V7.96H45.3166V15.824C45.3166 16.1867 45.3193 16.4907 45.3246 16.736C45.3353 16.976 45.3913 17.1893 45.4926 17.376C45.6846 17.7333 45.9886 17.9467 46.4046 18.016C46.826 18.0853 47.346 18.0693 47.9646 17.968V19ZM42.3006 11.368V10.36H47.9646V11.368H42.3006ZM52.9624 19.24C52.1037 19.24 51.3704 19.0453 50.7624 18.656C50.1544 18.2667 49.6877 17.728 49.3624 17.04C49.037 16.352 48.8744 15.5627 48.8744 14.672C48.8744 13.7653 49.0397 12.9707 49.3704 12.288C49.701 11.6053 50.1704 11.0747 50.7784 10.696C51.3917 10.312 52.1197 10.12 52.9624 10.12C53.8264 10.12 54.5624 10.3147 55.1704 10.704C55.7837 11.088 56.2504 11.624 56.5704 12.312C56.8957 12.9947 57.0584 13.7813 57.0584 14.672C57.0584 15.5787 56.8957 16.376 56.5704 17.064C56.245 17.7467 55.7757 18.28 55.1624 18.664C54.549 19.048 53.8157 19.24 52.9624 19.24ZM52.9624 18.112C53.9224 18.112 54.637 17.7947 55.1064 17.16C55.5757 16.52 55.8104 15.6907 55.8104 14.672C55.8104 13.6267 55.573 12.7947 55.0984 12.176C54.629 11.5573 53.917 11.248 52.9624 11.248C52.317 11.248 51.7837 11.3947 51.3624 11.688C50.9464 11.976 50.6344 12.3787 50.4264 12.896C50.2237 13.408 50.1224 14 50.1224 14.672C50.1224 15.712 50.3624 16.5467 50.8424 17.176C51.3224 17.8 52.029 18.112 52.9624 18.112ZM58.8231 19V10.36H59.8791V12.44L59.6711 12.168C59.7671 11.912 59.8925 11.6773 60.0471 11.464C60.2018 11.2453 60.3698 11.0667 60.5511 10.928C60.7751 10.7307 61.0365 10.5813 61.3351 10.48C61.6338 10.3733 61.9351 10.312 62.2391 10.296C62.5431 10.2747 62.8205 10.296 63.0711 10.36V11.464C62.7565 11.384 62.4125 11.3653 62.0391 11.408C61.6658 11.4507 61.3218 11.6 61.0071 11.856C60.7191 12.08 60.5031 12.3493 60.3591 12.664C60.2151 12.9733 60.1191 13.304 60.0711 13.656C60.0231 14.0027 59.9991 14.3467 59.9991 14.688V19H58.8231ZM68.0885 19.24C67.2458 19.24 66.5152 19.0533 65.8965 18.68C65.2832 18.3067 64.8058 17.7813 64.4645 17.104C64.1232 16.4267 63.9525 15.632 63.9525 14.72C63.9525 13.776 64.1205 12.96 64.4565 12.272C64.7925 11.584 65.2645 11.0533 65.8725 10.68C66.4858 10.3067 67.2085 10.12 68.0405 10.12C68.8938 10.12 69.6218 10.3173 70.2245 10.712C70.8272 11.1013 71.2832 11.6613 71.5925 12.392C71.9018 13.1227 72.0432 13.9947 72.0165 15.008H70.8165V14.592C70.7952 13.472 70.5525 12.6267 70.0885 12.056C69.6298 11.4853 68.9578 11.2 68.0725 11.2C67.1445 11.2 66.4325 11.5013 65.9365 12.104C65.4458 12.7067 65.2005 13.5653 65.2005 14.68C65.2005 15.768 65.4458 16.6133 65.9365 17.216C66.4325 17.8133 67.1338 18.112 68.0405 18.112C68.6592 18.112 69.1978 17.9707 69.6565 17.688C70.1205 17.4 70.4858 16.9867 70.7525 16.448L71.8485 16.872C71.5072 17.624 71.0032 18.208 70.3365 18.624C69.6752 19.0347 68.9258 19.24 68.0885 19.24ZM64.7845 15.008V14.024H71.3845V15.008H64.7845Z" fill="#9397AD"/>
</svg>
