<svg width="69" height="12" viewBox="0 0 69 12" fill="none" xmlns="http://www.w3.org/2000/svg">
<path d="M0.98 11V0.92H4.872C5.43667 0.92 5.929 1.03667 6.349 1.27C6.769 1.50333 7.09567 1.81833 7.329 2.215C7.56233 2.607 7.679 3.041 7.679 3.517C7.679 4.05833 7.53433 4.54133 7.245 4.966C6.95567 5.386 6.56833 5.67767 6.083 5.841L6.069 5.498C6.72233 5.68467 7.23567 6.01133 7.609 6.478C7.98233 6.94467 8.169 7.50933 8.169 8.172C8.169 8.75533 8.04533 9.25933 7.798 9.684C7.55067 10.104 7.203 10.4283 6.755 10.657C6.307 10.8857 5.78667 11 5.194 11H0.98ZM2.016 10.013H4.942C5.35267 10.013 5.72133 9.94067 6.048 9.796C6.37467 9.64667 6.63133 9.43667 6.818 9.166C7.00933 8.89533 7.105 8.56867 7.105 8.186C7.105 7.81267 7.01867 7.47667 6.846 7.178C6.67333 6.87933 6.43767 6.64133 6.139 6.464C5.845 6.282 5.509 6.191 5.131 6.191H2.016V10.013ZM2.016 5.218H4.865C5.187 5.218 5.481 5.14567 5.747 5.001C6.013 4.85167 6.223 4.64867 6.377 4.392C6.53567 4.13533 6.615 3.839 6.615 3.503C6.615 3.027 6.44933 2.63967 6.118 2.341C5.79133 2.04233 5.37367 1.893 4.865 1.893H2.016V5.218ZM12.7649 11.21C12.0276 11.21 11.3883 11.0467 10.8469 10.72C10.3103 10.3933 9.8926 9.93367 9.59394 9.341C9.29527 8.74833 9.14594 8.053 9.14594 7.255C9.14594 6.429 9.29294 5.715 9.58694 5.113C9.88094 4.511 10.2939 4.04667 10.8259 3.72C11.3626 3.39333 11.9949 3.23 12.7229 3.23C13.4696 3.23 14.1066 3.40267 14.6339 3.748C15.1613 4.08867 15.5603 4.57867 15.8309 5.218C16.1016 5.85733 16.2253 6.62033 16.2019 7.507H15.1519V7.143C15.1333 6.163 14.9209 5.42333 14.5149 4.924C14.1136 4.42467 13.5256 4.175 12.7509 4.175C11.9389 4.175 11.3159 4.43867 10.8819 4.966C10.4526 5.49333 10.2379 6.24467 10.2379 7.22C10.2379 8.172 10.4526 8.91167 10.8819 9.439C11.3159 9.96167 11.9296 10.223 12.7229 10.223C13.2643 10.223 13.7356 10.0993 14.1369 9.852C14.5429 9.6 14.8626 9.23833 15.0959 8.767L16.0549 9.138C15.7563 9.796 15.3153 10.307 14.7319 10.671C14.1533 11.0303 13.4976 11.21 12.7649 11.21ZM9.87394 7.507V6.646H15.6489V7.507H9.87394ZM20.5764 11.203C19.6897 11.203 18.9594 11.0117 18.3854 10.629C17.8161 10.2463 17.4661 9.71433 17.3354 9.033L18.3854 8.858C18.4974 9.28733 18.7517 9.63033 19.1484 9.887C19.5497 10.139 20.0444 10.265 20.6324 10.265C21.2064 10.265 21.6591 10.146 21.9904 9.908C22.3217 9.66533 22.4874 9.33633 22.4874 8.921C22.4874 8.68767 22.4337 8.49867 22.3264 8.354C22.2237 8.20467 22.0114 8.067 21.6894 7.941C21.3674 7.815 20.8867 7.66567 20.2474 7.493C19.5614 7.30633 19.0247 7.11967 18.6374 6.933C18.2501 6.74633 17.9747 6.53167 17.8114 6.289C17.6481 6.04167 17.5664 5.74067 17.5664 5.386C17.5664 4.95667 17.6877 4.581 17.9304 4.259C18.1731 3.93233 18.5091 3.68033 18.9384 3.503C19.3677 3.321 19.8671 3.23 20.4364 3.23C21.0057 3.23 21.5144 3.32333 21.9624 3.51C22.4151 3.692 22.7791 3.94867 23.0544 4.28C23.3297 4.61133 23.4931 4.99633 23.5444 5.435L22.4944 5.624C22.4244 5.18067 22.2027 4.83067 21.8294 4.574C21.4607 4.31267 20.9917 4.17733 20.4224 4.168C19.8857 4.154 19.4494 4.25667 19.1134 4.476C18.7774 4.69067 18.6094 4.97767 18.6094 5.337C18.6094 5.53767 18.6701 5.71033 18.7914 5.855C18.9127 5.995 19.1321 6.128 19.4494 6.254C19.7714 6.38 20.2287 6.51767 20.8214 6.667C21.5167 6.84433 22.0627 7.031 22.4594 7.227C22.8561 7.423 23.1384 7.654 23.3064 7.92C23.4744 8.186 23.5584 8.515 23.5584 8.907C23.5584 9.621 23.2924 10.1833 22.7604 10.594C22.2331 11 21.5051 11.203 20.5764 11.203ZM29.2269 11C28.8022 11.0887 28.3822 11.1237 27.9669 11.105C27.5562 11.0863 27.1875 10.9977 26.8609 10.839C26.5389 10.6803 26.2939 10.433 26.1259 10.097C25.9905 9.817 25.9159 9.53467 25.9019 9.25C25.8925 8.96067 25.8879 8.63167 25.8879 8.263V1.34H26.9099V8.221C26.9099 8.53833 26.9122 8.80433 26.9169 9.019C26.9262 9.229 26.9752 9.41567 27.0639 9.579C27.2319 9.89167 27.4979 10.0783 27.8619 10.139C28.2305 10.1997 28.6855 10.1857 29.2269 10.097V11ZM24.2709 4.322V3.44H29.2269V4.322H24.2709ZM37.0191 11.21C36.3144 11.21 35.6797 11.0933 35.1151 10.86C34.5551 10.622 34.0907 10.286 33.7221 9.852C33.3581 9.418 33.1201 8.90233 33.0081 8.305L34.0581 8.13C34.2261 8.78333 34.5807 9.29667 35.1221 9.67C35.6634 10.0387 36.3097 10.223 37.0611 10.223C37.5557 10.223 37.9991 10.146 38.3911 9.992C38.7831 9.83333 39.0911 9.60933 39.3151 9.32C39.5391 9.03067 39.6511 8.68767 39.6511 8.291C39.6511 8.02967 39.6044 7.808 39.5111 7.626C39.4177 7.43933 39.2941 7.28533 39.1401 7.164C38.9861 7.04267 38.8181 6.94233 38.6361 6.863C38.4541 6.779 38.2767 6.71133 38.1041 6.66L35.5491 5.897C35.2411 5.80833 34.9564 5.69633 34.6951 5.561C34.4337 5.421 34.2051 5.25533 34.0091 5.064C33.8177 4.868 33.6684 4.63933 33.5611 4.378C33.4537 4.11667 33.4001 3.818 33.4001 3.482C33.4001 2.91267 33.5494 2.42033 33.8481 2.005C34.1467 1.58967 34.5551 1.27 35.0731 1.046C35.5911 0.822 36.1814 0.712333 36.8441 0.716999C37.5161 0.716999 38.1157 0.835999 38.6431 1.074C39.1751 1.312 39.6137 1.65267 39.9591 2.096C40.3044 2.53467 40.5331 3.055 40.6451 3.657L39.5671 3.853C39.4971 3.41433 39.3361 3.034 39.0841 2.712C38.8321 2.39 38.5101 2.14267 38.1181 1.97C37.7307 1.79267 37.3037 1.70167 36.8371 1.697C36.3844 1.697 35.9807 1.774 35.6261 1.928C35.2761 2.07733 34.9984 2.28267 34.7931 2.544C34.5877 2.80533 34.4851 3.104 34.4851 3.44C34.4851 3.78067 34.5784 4.05367 34.7651 4.259C34.9564 4.46433 35.1897 4.62533 35.4651 4.742C35.7451 4.85867 36.0157 4.95433 36.2771 5.029L38.2511 5.61C38.4564 5.666 38.6967 5.74767 38.9721 5.855C39.2521 5.95767 39.5227 6.107 39.7841 6.303C40.0501 6.49433 40.2694 6.74633 40.4421 7.059C40.6147 7.37167 40.7011 7.76833 40.7011 8.249C40.7011 8.71567 40.6077 9.13333 40.4211 9.502C40.2391 9.87067 39.9801 10.181 39.6441 10.433C39.3127 10.685 38.9231 10.8763 38.4751 11.007C38.0317 11.1423 37.5464 11.21 37.0191 11.21ZM45.345 11.21C44.6077 11.21 43.9683 11.0467 43.427 10.72C42.8903 10.3933 42.4727 9.93367 42.174 9.341C41.8753 8.74833 41.726 8.053 41.726 7.255C41.726 6.429 41.873 5.715 42.167 5.113C42.461 4.511 42.874 4.04667 43.406 3.72C43.9427 3.39333 44.575 3.23 45.303 3.23C46.0497 3.23 46.6867 3.40267 47.214 3.748C47.7413 4.08867 48.1403 4.57867 48.411 5.218C48.6817 5.85733 48.8053 6.62033 48.782 7.507H47.732V7.143C47.7133 6.163 47.501 5.42333 47.095 4.924C46.6937 4.42467 46.1057 4.175 45.331 4.175C44.519 4.175 43.896 4.43867 43.462 4.966C43.0327 5.49333 42.818 6.24467 42.818 7.22C42.818 8.172 43.0327 8.91167 43.462 9.439C43.896 9.96167 44.5097 10.223 45.303 10.223C45.8443 10.223 46.3157 10.0993 46.717 9.852C47.123 9.6 47.4427 9.23833 47.676 8.767L48.635 9.138C48.3363 9.796 47.8953 10.307 47.312 10.671C46.7333 11.0303 46.0777 11.21 45.345 11.21ZM42.454 7.507V6.646H48.229V7.507H42.454ZM50.4755 11V0.71H51.5045V11H50.4755ZM53.743 11V0.71H54.772V11H53.743ZM60.0696 11.21C59.3323 11.21 58.693 11.0467 58.1516 10.72C57.615 10.3933 57.1973 9.93367 56.8986 9.341C56.6 8.74833 56.4506 8.053 56.4506 7.255C56.4506 6.429 56.5976 5.715 56.8916 5.113C57.1856 4.511 57.5986 4.04667 58.1306 3.72C58.6673 3.39333 59.2996 3.23 60.0276 3.23C60.7743 3.23 61.4113 3.40267 61.9386 3.748C62.466 4.08867 62.865 4.57867 63.1356 5.218C63.4063 5.85733 63.53 6.62033 63.5066 7.507H62.4566V7.143C62.438 6.163 62.2256 5.42333 61.8196 4.924C61.4183 4.42467 60.8303 4.175 60.0556 4.175C59.2436 4.175 58.6206 4.43867 58.1866 4.966C57.7573 5.49333 57.5426 6.24467 57.5426 7.22C57.5426 8.172 57.7573 8.91167 58.1866 9.439C58.6206 9.96167 59.2343 10.223 60.0276 10.223C60.569 10.223 61.0403 10.0993 61.4416 9.852C61.8476 9.6 62.1673 9.23833 62.4006 8.767L63.3596 9.138C63.061 9.796 62.62 10.307 62.0366 10.671C61.458 11.0303 60.8023 11.21 60.0696 11.21ZM57.1786 7.507V6.646H62.9536V7.507H57.1786ZM65.0601 11V3.44H65.9841V5.26L65.8021 5.022C65.8861 4.798 65.9957 4.59267 66.1311 4.406C66.2664 4.21467 66.4134 4.05833 66.5721 3.937C66.7681 3.76433 66.9967 3.63367 67.2581 3.545C67.5194 3.45167 67.7831 3.398 68.0491 3.384C68.3151 3.36533 68.5577 3.384 68.7771 3.44V4.406C68.5017 4.336 68.2007 4.31967 67.8741 4.357C67.5474 4.39433 67.2464 4.525 66.9711 4.749C66.7191 4.945 66.5301 5.18067 66.4041 5.456C66.2781 5.72667 66.1941 6.016 66.1521 6.324C66.1101 6.62733 66.0891 6.92833 66.0891 7.227V11H65.0601Z" fill="white"/>
</svg>
