<svg width="235" height="162" viewBox="0 0 235 162" fill="none" xmlns="http://www.w3.org/2000/svg">
<path d="M16.6667 5.5H3.33335C2.41419 5.5 1.66669 6.2475 1.66669 7.16667V15.5C1.66669 16.4192 2.41419 17.1667 3.33335 17.1667H9.16669V19.6667H6.66669V21.3333H9.16669H10.8334H13.3334V19.6667H10.8334V17.1667H16.6667C17.5859 17.1667 18.3334 16.4192 18.3334 15.5V7.16667C18.3334 6.2475 17.5859 5.5 16.6667 5.5ZM3.33335 15.5V7.16667H16.6667L16.6675 15.5H3.33335Z" fill="#9397AD"/>
<path d="M8.33331 13.8333L12.5 11.3333L8.33331 8.83325V13.8333Z" fill="#9397AD"/>
<path d="M35.128 17V6.792L32.96 8.096V6.776L35.128 5.48H36.32V17H35.128ZM44.4264 17V14.768H39.0344V13.648L42.8904 5.48H44.2104L40.3544 13.648H44.4264V10.288H45.6104V13.648H46.8664V14.768H45.6104V17H44.4264ZM52.3039 17.24C51.5839 17.24 50.9465 17.096 50.3919 16.808C49.8425 16.52 49.4105 16.1173 49.0959 15.6C48.7865 15.0773 48.6319 14.4667 48.6319 13.768C48.6319 13.0533 48.8052 12.4187 49.1519 11.864C49.4985 11.304 50.0265 10.88 50.7359 10.592L50.7199 11.056C50.1279 10.8373 49.6772 10.48 49.3679 9.984C49.0585 9.488 48.9039 8.93867 48.9039 8.336C48.9039 7.696 49.0505 7.14667 49.3439 6.688C49.6372 6.224 50.0372 5.86667 50.5439 5.616C51.0559 5.36533 51.6425 5.24 52.3039 5.24C52.9652 5.24 53.5519 5.36533 54.0639 5.616C54.5759 5.86667 54.9785 6.224 55.2719 6.688C55.5652 7.14667 55.7119 7.696 55.7119 8.336C55.7119 8.93867 55.5625 9.48533 55.2639 9.976C54.9705 10.4667 54.5199 10.8267 53.9119 11.056L53.8719 10.592C54.5812 10.8747 55.1119 11.296 55.4639 11.856C55.8212 12.416 55.9999 13.0533 55.9999 13.768C55.9999 14.4667 55.8425 15.0773 55.5279 15.6C55.2132 16.1173 54.7785 16.52 54.2239 16.808C53.6692 17.096 53.0292 17.24 52.3039 17.24ZM52.3039 16.112C53.0292 16.112 53.6185 15.912 54.0719 15.512C54.5252 15.1067 54.7519 14.5253 54.7519 13.768C54.7519 13 54.5279 12.4187 54.0799 12.024C53.6319 11.624 53.0399 11.424 52.3039 11.424C51.5679 11.424 50.9785 11.624 50.5359 12.024C50.0932 12.4187 49.8719 13 49.8719 13.768C49.8719 14.5253 50.0959 15.1067 50.5439 15.512C50.9919 15.912 51.5785 16.112 52.3039 16.112ZM52.3039 10.288C52.9439 10.288 53.4639 10.1253 53.8639 9.8C54.2639 9.46933 54.4639 8.98133 54.4639 8.336C54.4639 7.69067 54.2639 7.208 53.8639 6.888C53.4639 6.56267 52.9439 6.4 52.3039 6.4C51.6639 6.4 51.1439 6.56267 50.7439 6.888C50.3492 7.208 50.1519 7.69067 50.1519 8.336C50.1519 8.98133 50.3492 9.46933 50.7439 9.8C51.1439 10.1253 51.6639 10.288 52.3039 10.288ZM67.5163 17V12.592C67.5163 12.112 67.4709 11.672 67.3803 11.272C67.2896 10.8667 67.1429 10.5147 66.9403 10.216C66.7429 9.912 66.4843 9.67733 66.1643 9.512C65.8496 9.34667 65.4656 9.264 65.0123 9.264C64.5963 9.264 64.2283 9.336 63.9083 9.48C63.5936 9.624 63.3269 9.832 63.1083 10.104C62.8949 10.3707 62.7323 10.696 62.6203 11.08C62.5083 11.464 62.4523 11.9013 62.4523 12.392L61.6203 12.208C61.6203 11.3227 61.7749 10.5787 62.0843 9.976C62.3936 9.37333 62.8203 8.91733 63.3643 8.608C63.9083 8.29867 64.5323 8.144 65.2363 8.144C65.7536 8.144 66.2043 8.224 66.5883 8.384C66.9776 8.544 67.3056 8.76 67.5723 9.032C67.8443 9.304 68.0629 9.616 68.2283 9.968C68.3936 10.3147 68.5136 10.6853 68.5883 11.08C68.6629 11.4693 68.7003 11.8587 68.7003 12.248V17H67.5163ZM61.2683 17V5.48H62.3323V11.984H62.4523V17H61.2683ZM74.3843 17.24C73.5256 17.24 72.7923 17.0453 72.1843 16.656C71.5763 16.2667 71.1096 15.728 70.7843 15.04C70.4589 14.352 70.2963 13.5627 70.2963 12.672C70.2963 11.7653 70.4616 10.9707 70.7923 10.288C71.1229 9.60533 71.5923 9.07467 72.2003 8.696C72.8136 8.312 73.5416 8.12 74.3843 8.12C75.2483 8.12 75.9843 8.31467 76.5923 8.704C77.2056 9.088 77.6723 9.624 77.9923 10.312C78.3176 10.9947 78.4803 11.7813 78.4803 12.672C78.4803 13.5787 78.3176 14.376 77.9923 15.064C77.6669 15.7467 77.1976 16.28 76.5843 16.664C75.9709 17.048 75.2376 17.24 74.3843 17.24ZM74.3843 16.112C75.3443 16.112 76.0589 15.7947 76.5283 15.16C76.9976 14.52 77.2323 13.6907 77.2323 12.672C77.2323 11.6267 76.9949 10.7947 76.5203 10.176C76.0509 9.55733 75.3389 9.248 74.3843 9.248C73.7389 9.248 73.2056 9.39467 72.7843 9.688C72.3683 9.976 72.0563 10.3787 71.8483 10.896C71.6456 11.408 71.5443 12 71.5443 12.672C71.5443 13.712 71.7843 14.5467 72.2643 15.176C72.7443 15.8 73.4509 16.112 74.3843 16.112ZM83.549 17.216C83.0317 17.216 82.5783 17.136 82.189 16.976C81.805 16.816 81.477 16.6 81.205 16.328C80.9383 16.056 80.7223 15.7467 80.557 15.4C80.3917 15.048 80.2717 14.6773 80.197 14.288C80.1223 13.8933 80.085 13.5013 80.085 13.112V8.36H81.269V12.768C81.269 13.2427 81.3143 13.6827 81.405 14.088C81.4957 14.4933 81.6397 14.848 81.837 15.152C82.0397 15.4507 82.2983 15.6827 82.613 15.848C82.933 16.0133 83.3197 16.096 83.773 16.096C84.189 16.096 84.5543 16.024 84.869 15.88C85.189 15.736 85.4557 15.5307 85.669 15.264C85.8877 14.992 86.053 14.664 86.165 14.28C86.277 13.8907 86.333 13.4533 86.333 12.968L87.165 13.152C87.165 14.0373 87.0103 14.7813 86.701 15.384C86.3917 15.9867 85.965 16.4427 85.421 16.752C84.877 17.0613 84.253 17.216 83.549 17.216ZM86.453 17V14.872H86.333V8.36H87.509V17H86.453ZM89.745 17V8.36H90.801V10.44L90.593 10.168C90.689 9.912 90.8143 9.67733 90.969 9.464C91.1237 9.24533 91.2917 9.06667 91.473 8.928C91.697 8.73067 91.9583 8.58133 92.257 8.48C92.5557 8.37333 92.857 8.312 93.161 8.296C93.465 8.27467 93.7423 8.296 93.993 8.36V9.464C93.6783 9.384 93.3343 9.36533 92.961 9.408C92.5877 9.45067 92.2437 9.6 91.929 9.856C91.641 10.08 91.425 10.3493 91.281 10.664C91.137 10.9733 91.041 11.304 90.993 11.656C90.945 12.0027 90.921 12.3467 90.921 12.688V17H89.745ZM98.4221 17.232C97.4088 17.232 96.5741 17.0133 95.9181 16.576C95.2675 16.1387 94.8675 15.5307 94.7181 14.752L95.9181 14.552C96.0461 15.0427 96.3368 15.4347 96.7901 15.728C97.2488 16.016 97.8141 16.16 98.4861 16.16C99.1421 16.16 99.6595 16.024 100.038 15.752C100.417 15.4747 100.606 15.0987 100.606 14.624C100.606 14.3573 100.545 14.1413 100.422 13.976C100.305 13.8053 100.062 13.648 99.6941 13.504C99.3261 13.36 98.7768 13.1893 98.0461 12.992C97.2621 12.7787 96.6488 12.5653 96.2061 12.352C95.7635 12.1387 95.4488 11.8933 95.2621 11.616C95.0755 11.3333 94.9821 10.9893 94.9821 10.584C94.9821 10.0933 95.1208 9.664 95.3981 9.296C95.6755 8.92267 96.0595 8.63467 96.5501 8.432C97.0408 8.224 97.6115 8.12 98.2621 8.12C98.9128 8.12 99.4941 8.22667 100.006 8.44C100.523 8.648 100.939 8.94133 101.254 9.32C101.569 9.69867 101.755 10.1387 101.814 10.64L100.614 10.856C100.534 10.3493 100.281 9.94933 99.8541 9.656C99.4328 9.35733 98.8968 9.20267 98.2461 9.192C97.6328 9.176 97.1341 9.29333 96.7501 9.544C96.3661 9.78933 96.1741 10.1173 96.1741 10.528C96.1741 10.7573 96.2435 10.9547 96.3821 11.12C96.5208 11.28 96.7715 11.432 97.1341 11.576C97.5021 11.72 98.0248 11.8773 98.7021 12.048C99.4968 12.2507 100.121 12.464 100.574 12.688C101.027 12.912 101.35 13.176 101.542 13.48C101.734 13.784 101.83 14.16 101.83 14.608C101.83 15.424 101.526 16.0667 100.918 16.536C100.315 17 99.4835 17.232 98.4221 17.232ZM110.416 17.24C109.557 17.24 108.824 17.0453 108.216 16.656C107.608 16.2667 107.141 15.728 106.816 15.04C106.49 14.352 106.328 13.5627 106.328 12.672C106.328 11.7653 106.493 10.9707 106.824 10.288C107.154 9.60533 107.624 9.07467 108.232 8.696C108.845 8.312 109.573 8.12 110.416 8.12C111.28 8.12 112.016 8.31467 112.624 8.704C113.237 9.088 113.704 9.624 114.024 10.312C114.349 10.9947 114.512 11.7813 114.512 12.672C114.512 13.5787 114.349 14.376 114.024 15.064C113.698 15.7467 113.229 16.28 112.616 16.664C112.002 17.048 111.269 17.24 110.416 17.24ZM110.416 16.112C111.376 16.112 112.09 15.7947 112.56 15.16C113.029 14.52 113.264 13.6907 113.264 12.672C113.264 11.6267 113.026 10.7947 112.552 10.176C112.082 9.55733 111.37 9.248 110.416 9.248C109.77 9.248 109.237 9.39467 108.816 9.688C108.4 9.976 108.088 10.3787 107.88 10.896C107.677 11.408 107.576 12 107.576 12.672C107.576 13.712 107.816 14.5467 108.296 15.176C108.776 15.8 109.482 16.112 110.416 16.112ZM122.516 17V12.592C122.516 12.112 122.471 11.672 122.38 11.272C122.29 10.8667 122.143 10.5147 121.94 10.216C121.743 9.912 121.484 9.67733 121.164 9.512C120.85 9.34667 120.466 9.264 120.012 9.264C119.596 9.264 119.228 9.336 118.908 9.48C118.594 9.624 118.327 9.832 118.108 10.104C117.895 10.3707 117.732 10.696 117.62 11.08C117.508 11.464 117.452 11.9013 117.452 12.392L116.62 12.208C116.62 11.3227 116.775 10.5787 117.084 9.976C117.394 9.37333 117.82 8.91733 118.364 8.608C118.908 8.29867 119.532 8.144 120.236 8.144C120.754 8.144 121.204 8.224 121.588 8.384C121.978 8.544 122.306 8.76 122.572 9.032C122.844 9.304 123.063 9.616 123.228 9.968C123.394 10.3147 123.514 10.6853 123.588 11.08C123.663 11.4693 123.7 11.8587 123.7 12.248V17H122.516ZM116.268 17V8.36H117.332V10.488H117.452V17H116.268ZM125.616 12.464V11.456H130.416V12.464H125.616ZM135.847 17.24C135.042 17.24 134.354 17.04 133.783 16.64C133.212 16.2347 132.775 15.688 132.471 15C132.167 14.312 132.015 13.536 132.015 12.672C132.015 11.8133 132.164 11.04 132.463 10.352C132.767 9.664 133.202 9.12 133.767 8.72C134.332 8.32 135.01 8.12 135.799 8.12C136.61 8.12 137.292 8.31733 137.847 8.712C138.402 9.10667 138.82 9.648 139.103 10.336C139.391 11.0187 139.535 11.7973 139.535 12.672C139.535 13.5307 139.394 14.3067 139.111 15C138.828 15.688 138.412 16.2347 137.863 16.64C137.314 17.04 136.642 17.24 135.847 17.24ZM135.967 16.144C136.58 16.144 137.087 15.9947 137.487 15.696C137.887 15.3973 138.186 14.9867 138.383 14.464C138.58 13.936 138.679 13.3387 138.679 12.672C138.679 11.9947 138.58 11.3973 138.383 10.88C138.186 10.3573 137.887 9.94933 137.487 9.656C137.092 9.36267 136.594 9.216 135.991 9.216C135.372 9.216 134.86 9.368 134.455 9.672C134.05 9.976 133.748 10.3893 133.551 10.912C133.359 11.4347 133.263 12.0213 133.263 12.672C133.263 13.328 133.362 13.92 133.559 14.448C133.762 14.9707 134.063 15.384 134.463 15.688C134.863 15.992 135.364 16.144 135.967 16.144ZM138.679 17V10.496H138.551V5.48H139.735V17H138.679ZM145.635 17.24C144.793 17.24 144.062 17.0533 143.443 16.68C142.83 16.3067 142.353 15.7813 142.011 15.104C141.67 14.4267 141.499 13.632 141.499 12.72C141.499 11.776 141.667 10.96 142.003 10.272C142.339 9.584 142.811 9.05333 143.419 8.68C144.033 8.30667 144.755 8.12 145.587 8.12C146.441 8.12 147.169 8.31733 147.771 8.712C148.374 9.10133 148.83 9.66133 149.139 10.392C149.449 11.1227 149.59 11.9947 149.563 13.008H148.363V12.592C148.342 11.472 148.099 10.6267 147.635 10.056C147.177 9.48533 146.505 9.2 145.619 9.2C144.691 9.2 143.979 9.50133 143.483 10.104C142.993 10.7067 142.747 11.5653 142.747 12.68C142.747 13.768 142.993 14.6133 143.483 15.216C143.979 15.8133 144.681 16.112 145.587 16.112C146.206 16.112 146.745 15.9707 147.203 15.688C147.667 15.4 148.033 14.9867 148.299 14.448L149.395 14.872C149.054 15.624 148.55 16.208 147.883 16.624C147.222 17.0347 146.473 17.24 145.635 17.24ZM142.331 13.008V12.024H148.931V13.008H142.331ZM161.408 17L161.416 11.328C161.416 10.6613 161.23 10.1387 160.856 9.76C160.488 9.376 160.019 9.184 159.448 9.184C159.123 9.184 158.806 9.25867 158.496 9.408C158.187 9.55733 157.931 9.79733 157.728 10.128C157.531 10.4587 157.432 10.8907 157.432 11.424L156.736 11.224C156.72 10.6053 156.84 10.064 157.096 9.6C157.358 9.136 157.715 8.776 158.168 8.52C158.627 8.25867 159.144 8.128 159.72 8.128C160.59 8.128 161.286 8.39733 161.808 8.936C162.331 9.46933 162.592 10.192 162.592 11.104L162.584 17H161.408ZM151.096 17V8.36H152.152V10.488H152.28V17H151.096ZM156.264 17L156.272 11.408C156.272 10.72 156.088 10.1787 155.72 9.784C155.358 9.384 154.878 9.184 154.28 9.184C153.683 9.184 153.2 9.38933 152.832 9.8C152.464 10.2053 152.28 10.7467 152.28 11.424L151.576 11.04C151.576 10.4853 151.707 9.98933 151.968 9.552C152.23 9.10933 152.587 8.76267 153.04 8.512C153.494 8.256 154.008 8.128 154.584 8.128C155.134 8.128 155.622 8.24533 156.048 8.48C156.48 8.71467 156.819 9.056 157.064 9.504C157.31 9.952 157.432 10.496 157.432 11.136L157.424 17H156.264ZM167.139 17.24C166.488 17.24 165.942 17.1227 165.499 16.888C165.062 16.6533 164.734 16.3413 164.515 15.952C164.296 15.5627 164.187 15.1387 164.187 14.68C164.187 14.2107 164.28 13.8107 164.467 13.48C164.659 13.144 164.918 12.8693 165.243 12.656C165.574 12.4427 165.955 12.28 166.387 12.168C166.824 12.0613 167.307 11.968 167.835 11.888C168.368 11.8027 168.888 11.7307 169.395 11.672C169.907 11.608 170.355 11.5467 170.739 11.488L170.323 11.744C170.339 10.8907 170.174 10.2587 169.827 9.848C169.48 9.43733 168.878 9.232 168.019 9.232C167.427 9.232 166.926 9.36533 166.515 9.632C166.11 9.89867 165.824 10.32 165.659 10.896L164.515 10.56C164.712 9.78667 165.11 9.18667 165.707 8.76C166.304 8.33333 167.08 8.12 168.035 8.12C168.824 8.12 169.494 8.26933 170.043 8.568C170.598 8.86133 170.99 9.288 171.219 9.848C171.326 10.0987 171.395 10.3787 171.427 10.688C171.459 10.9973 171.475 11.312 171.475 11.632V17H170.427V14.832L170.731 14.96C170.438 15.7013 169.982 16.2667 169.363 16.656C168.744 17.0453 168.003 17.24 167.139 17.24ZM167.275 16.224C167.824 16.224 168.304 16.1253 168.715 15.928C169.126 15.7307 169.456 15.4613 169.707 15.12C169.958 14.7733 170.12 14.384 170.195 13.952C170.259 13.6747 170.294 13.3707 170.299 13.04C170.304 12.704 170.307 12.4533 170.307 12.288L170.755 12.52C170.355 12.5733 169.92 12.6267 169.451 12.68C168.987 12.7333 168.528 12.7947 168.075 12.864C167.627 12.9333 167.222 13.016 166.859 13.112C166.614 13.1813 166.376 13.28 166.147 13.408C165.918 13.5307 165.728 13.696 165.579 13.904C165.435 14.112 165.363 14.3707 165.363 14.68C165.363 14.9307 165.424 15.1733 165.547 15.408C165.675 15.6427 165.878 15.8373 166.155 15.992C166.438 16.1467 166.811 16.224 167.275 16.224ZM179.798 17V12.592C179.798 12.112 179.752 11.672 179.662 11.272C179.571 10.8667 179.424 10.5147 179.222 10.216C179.024 9.912 178.766 9.67733 178.446 9.512C178.131 9.34667 177.747 9.264 177.294 9.264C176.878 9.264 176.51 9.336 176.19 9.48C175.875 9.624 175.608 9.832 175.39 10.104C175.176 10.3707 175.014 10.696 174.902 11.08C174.79 11.464 174.734 11.9013 174.734 12.392L173.902 12.208C173.902 11.3227 174.056 10.5787 174.366 9.976C174.675 9.37333 175.102 8.91733 175.646 8.608C176.19 8.29867 176.814 8.144 177.518 8.144C178.035 8.144 178.486 8.224 178.87 8.384C179.259 8.544 179.587 8.76 179.854 9.032C180.126 9.304 180.344 9.616 180.51 9.968C180.675 10.3147 180.795 10.6853 180.87 11.08C180.944 11.4693 180.982 11.8587 180.982 12.248V17H179.798ZM173.55 17V8.36H174.614V10.488H174.734V17H173.55ZM186.363 17.24C185.557 17.24 184.869 17.04 184.299 16.64C183.728 16.2347 183.291 15.688 182.987 15C182.683 14.312 182.531 13.536 182.531 12.672C182.531 11.8133 182.68 11.04 182.979 10.352C183.283 9.664 183.717 9.12 184.283 8.72C184.848 8.32 185.525 8.12 186.315 8.12C187.125 8.12 187.808 8.31733 188.363 8.712C188.917 9.10667 189.336 9.648 189.619 10.336C189.907 11.0187 190.051 11.7973 190.051 12.672C190.051 13.5307 189.909 14.3067 189.627 15C189.344 15.688 188.928 16.2347 188.379 16.64C187.829 17.04 187.157 17.24 186.363 17.24ZM186.483 16.144C187.096 16.144 187.603 15.9947 188.003 15.696C188.403 15.3973 188.701 14.9867 188.899 14.464C189.096 13.936 189.195 13.3387 189.195 12.672C189.195 11.9947 189.096 11.3973 188.899 10.88C188.701 10.3573 188.403 9.94933 188.003 9.656C187.608 9.36267 187.109 9.216 186.507 9.216C185.888 9.216 185.376 9.368 184.971 9.672C184.565 9.976 184.264 10.3893 184.067 10.912C183.875 11.4347 183.779 12.0213 183.779 12.672C183.779 13.328 183.877 13.92 184.075 14.448C184.277 14.9707 184.579 15.384 184.979 15.688C185.379 15.992 185.88 16.144 186.483 16.144ZM189.195 17V10.496H189.067V5.48H190.251V17H189.195ZM198.034 17L194.898 8.36H196.09L198.642 15.464L201.178 8.36H202.386L199.25 17H198.034ZM203.983 6.72V5.4H205.159V6.72H203.983ZM203.983 17V8.36H205.159V17H203.983ZM210.91 17.24C210.104 17.24 209.416 17.04 208.846 16.64C208.275 16.2347 207.838 15.688 207.534 15C207.23 14.312 207.078 13.536 207.078 12.672C207.078 11.8133 207.227 11.04 207.526 10.352C207.83 9.664 208.264 9.12 208.83 8.72C209.395 8.32 210.072 8.12 210.862 8.12C211.672 8.12 212.355 8.31733 212.91 8.712C213.464 9.10667 213.883 9.648 214.166 10.336C214.454 11.0187 214.598 11.7973 214.598 12.672C214.598 13.5307 214.456 14.3067 214.174 15C213.891 15.688 213.475 16.2347 212.926 16.64C212.376 17.04 211.704 17.24 210.91 17.24ZM211.03 16.144C211.643 16.144 212.15 15.9947 212.55 15.696C212.95 15.3973 213.248 14.9867 213.446 14.464C213.643 13.936 213.742 13.3387 213.742 12.672C213.742 11.9947 213.643 11.3973 213.446 10.88C213.248 10.3573 212.95 9.94933 212.55 9.656C212.155 9.36267 211.656 9.216 211.054 9.216C210.435 9.216 209.923 9.368 209.518 9.672C209.112 9.976 208.811 10.3893 208.614 10.912C208.422 11.4347 208.326 12.0213 208.326 12.672C208.326 13.328 208.424 13.92 208.622 14.448C208.824 14.9707 209.126 15.384 209.526 15.688C209.926 15.992 210.427 16.144 211.03 16.144ZM213.742 17V10.496H213.614V5.48H214.798V17H213.742ZM220.698 17.24C219.855 17.24 219.125 17.0533 218.506 16.68C217.893 16.3067 217.415 15.7813 217.074 15.104C216.733 14.4267 216.562 13.632 216.562 12.72C216.562 11.776 216.73 10.96 217.066 10.272C217.402 9.584 217.874 9.05333 218.482 8.68C219.095 8.30667 219.818 8.12 220.65 8.12C221.503 8.12 222.231 8.31733 222.834 8.712C223.437 9.10133 223.893 9.66133 224.202 10.392C224.511 11.1227 224.653 11.9947 224.626 13.008H223.426V12.592C223.405 11.472 223.162 10.6267 222.698 10.056C222.239 9.48533 221.567 9.2 220.682 9.2C219.754 9.2 219.042 9.50133 218.546 10.104C218.055 10.7067 217.81 11.5653 217.81 12.68C217.81 13.768 218.055 14.6133 218.546 15.216C219.042 15.8133 219.743 16.112 220.65 16.112C221.269 16.112 221.807 15.9707 222.266 15.688C222.73 15.4 223.095 14.9867 223.362 14.448L224.458 14.872C224.117 15.624 223.613 16.208 222.946 16.624C222.285 17.0347 221.535 17.24 220.698 17.24ZM217.394 13.008V12.024H223.994V13.008H217.394ZM230.009 17.24C229.151 17.24 228.417 17.0453 227.809 16.656C227.201 16.2667 226.735 15.728 226.409 15.04C226.084 14.352 225.921 13.5627 225.921 12.672C225.921 11.7653 226.087 10.9707 226.417 10.288C226.748 9.60533 227.217 9.07467 227.825 8.696C228.439 8.312 229.167 8.12 230.009 8.12C230.873 8.12 231.609 8.31467 232.217 8.704C232.831 9.088 233.297 9.624 233.617 10.312C233.943 10.9947 234.105 11.7813 234.105 12.672C234.105 13.5787 233.943 14.376 233.617 15.064C233.292 15.7467 232.823 16.28 232.209 16.664C231.596 17.048 230.863 17.24 230.009 17.24ZM230.009 16.112C230.969 16.112 231.684 15.7947 232.153 15.16C232.623 14.52 232.857 13.6907 232.857 12.672C232.857 11.6267 232.62 10.7947 232.145 10.176C231.676 9.55733 230.964 9.248 230.009 9.248C229.364 9.248 228.831 9.39467 228.409 9.688C227.993 9.976 227.681 10.3787 227.473 10.896C227.271 11.408 227.169 12 227.169 12.672C227.169 13.712 227.409 14.5467 227.889 15.176C228.369 15.8 229.076 16.112 230.009 16.112Z" fill="#565973"/>
<path d="M16.5858 44.1551C16.545 44.0667 16.4941 43.9826 16.4225 43.9109L11.4225 38.9109C11.3508 38.8392 11.2666 38.7884 11.1783 38.7476C11.1533 38.7359 11.1266 38.7292 11.1 38.7201C11.03 38.6967 10.9583 38.6817 10.8841 38.6776C10.8666 38.6759 10.8508 38.6667 10.8333 38.6667H4.99998C4.08081 38.6667 3.33331 39.4142 3.33331 40.3334V53.6667C3.33331 54.5859 4.08081 55.3334 4.99998 55.3334H15C15.9191 55.3334 16.6666 54.5859 16.6666 53.6667V44.5001C16.6666 44.4826 16.6575 44.4667 16.6558 44.4484C16.6516 44.3742 16.6375 44.3026 16.6133 44.2326C16.605 44.2059 16.5975 44.1801 16.5858 44.1551ZM13.8216 43.6667H11.6666V41.5117L13.8216 43.6667ZM4.99998 53.6667V40.3334H9.99998V44.5001C9.99998 44.9609 10.3725 45.3334 10.8333 45.3334H15L15.0016 53.6667H4.99998Z" fill="#9397AD"/>
<path d="M6.66669 47H13.3334V48.6666H6.66669V47ZM6.66669 50.3333H13.3334V52H6.66669V50.3333ZM6.66669 43.6666H8.33335V45.3333H6.66669V43.6666Z" fill="#9397AD"/>
<path d="M35.128 51V40.792L32.96 42.096V40.776L35.128 39.48H36.32V51H35.128ZM42.8664 51.24C42.1464 51.24 41.509 51.096 40.9544 50.808C40.405 50.52 39.973 50.1173 39.6584 49.6C39.349 49.0773 39.1944 48.4667 39.1944 47.768C39.1944 47.0533 39.3677 46.4187 39.7144 45.864C40.061 45.304 40.589 44.88 41.2984 44.592L41.2824 45.056C40.6904 44.8373 40.2397 44.48 39.9304 43.984C39.621 43.488 39.4664 42.9387 39.4664 42.336C39.4664 41.696 39.613 41.1467 39.9064 40.688C40.1997 40.224 40.5997 39.8667 41.1064 39.616C41.6184 39.3653 42.205 39.24 42.8664 39.24C43.5277 39.24 44.1144 39.3653 44.6264 39.616C45.1384 39.8667 45.541 40.224 45.8344 40.688C46.1277 41.1467 46.2744 41.696 46.2744 42.336C46.2744 42.9387 46.125 43.4853 45.8264 43.976C45.533 44.4667 45.0824 44.8267 44.4744 45.056L44.4344 44.592C45.1437 44.8747 45.6744 45.296 46.0264 45.856C46.3837 46.416 46.5624 47.0533 46.5624 47.768C46.5624 48.4667 46.405 49.0773 46.0904 49.6C45.7757 50.1173 45.341 50.52 44.7864 50.808C44.2317 51.096 43.5917 51.24 42.8664 51.24ZM42.8664 50.112C43.5917 50.112 44.181 49.912 44.6344 49.512C45.0877 49.1067 45.3144 48.5253 45.3144 47.768C45.3144 47 45.0904 46.4187 44.6424 46.024C44.1944 45.624 43.6024 45.424 42.8664 45.424C42.1304 45.424 41.541 45.624 41.0984 46.024C40.6557 46.4187 40.4344 47 40.4344 47.768C40.4344 48.5253 40.6584 49.1067 41.1064 49.512C41.5544 49.912 42.141 50.112 42.8664 50.112ZM42.8664 44.288C43.5064 44.288 44.0264 44.1253 44.4264 43.8C44.8264 43.4693 45.0264 42.9813 45.0264 42.336C45.0264 41.6907 44.8264 41.208 44.4264 40.888C44.0264 40.5627 43.5064 40.4 42.8664 40.4C42.2264 40.4 41.7064 40.5627 41.3064 40.888C40.9117 41.208 40.7144 41.6907 40.7144 42.336C40.7144 42.9813 40.9117 43.4693 41.3064 43.8C41.7064 44.1253 42.2264 44.288 42.8664 44.288ZM54.3108 51.24C53.6601 51.24 53.1134 51.1227 52.6708 50.888C52.2334 50.6533 51.9054 50.3413 51.6868 49.952C51.4681 49.5627 51.3588 49.1387 51.3588 48.68C51.3588 48.2107 51.4521 47.8107 51.6388 47.48C51.8308 47.144 52.0894 46.8693 52.4148 46.656C52.7454 46.4427 53.1268 46.28 53.5588 46.168C53.9961 46.0613 54.4788 45.968 55.0068 45.888C55.5401 45.8027 56.0601 45.7307 56.5668 45.672C57.0788 45.608 57.5268 45.5467 57.9108 45.488L57.4948 45.744C57.5108 44.8907 57.3454 44.2587 56.9988 43.848C56.6521 43.4373 56.0494 43.232 55.1908 43.232C54.5988 43.232 54.0974 43.3653 53.6868 43.632C53.2814 43.8987 52.9961 44.32 52.8307 44.896L51.6868 44.56C51.8841 43.7867 52.2814 43.1867 52.8788 42.76C53.4761 42.3333 54.2521 42.12 55.2068 42.12C55.9961 42.12 56.6654 42.2693 57.2148 42.568C57.7694 42.8613 58.1614 43.288 58.3908 43.848C58.4974 44.0987 58.5668 44.3787 58.5988 44.688C58.6308 44.9973 58.6468 45.312 58.6468 45.632V51H57.5988V48.832L57.9028 48.96C57.6094 49.7013 57.1534 50.2667 56.5348 50.656C55.9161 51.0453 55.1748 51.24 54.3108 51.24ZM54.4468 50.224C54.9961 50.224 55.4761 50.1253 55.8868 49.928C56.2974 49.7307 56.6281 49.4613 56.8788 49.12C57.1294 48.7733 57.2921 48.384 57.3668 47.952C57.4308 47.6747 57.4654 47.3707 57.4708 47.04C57.4761 46.704 57.4788 46.4533 57.4788 46.288L57.9268 46.52C57.5268 46.5733 57.0921 46.6267 56.6228 46.68C56.1588 46.7333 55.7001 46.7947 55.2468 46.864C54.7988 46.9333 54.3934 47.016 54.0308 47.112C53.7854 47.1813 53.5481 47.28 53.3188 47.408C53.0894 47.5307 52.9001 47.696 52.7508 47.904C52.6068 48.112 52.5348 48.3707 52.5348 48.68C52.5348 48.9307 52.5961 49.1733 52.7188 49.408C52.8468 49.6427 53.0494 49.8373 53.3268 49.992C53.6094 50.1467 53.9828 50.224 54.4468 50.224ZM60.7294 51V42.36H61.7854V44.44L61.5774 44.168C61.6734 43.912 61.7987 43.6773 61.9534 43.464C62.108 43.2453 62.276 43.0667 62.4574 42.928C62.6814 42.7307 62.9427 42.5813 63.2414 42.48C63.54 42.3733 63.8414 42.312 64.1454 42.296C64.4494 42.2747 64.7267 42.296 64.9774 42.36V43.464C64.6627 43.384 64.3187 43.3653 63.9454 43.408C63.572 43.4507 63.228 43.6 62.9134 43.856C62.6254 44.08 62.4094 44.3493 62.2654 44.664C62.1214 44.9733 62.0254 45.304 61.9774 45.656C61.9294 46.0027 61.9054 46.3467 61.9054 46.688V51H60.7294ZM71.199 51C70.7137 51.1013 70.2337 51.1413 69.759 51.12C69.2897 51.0987 68.8683 50.9973 68.495 50.816C68.127 50.6347 67.847 50.352 67.655 49.968C67.5003 49.648 67.415 49.3253 67.399 49C67.3883 48.6693 67.383 48.2933 67.383 47.872V39.96H68.551V47.824C68.551 48.1867 68.5537 48.4907 68.559 48.736C68.5697 48.976 68.6257 49.1893 68.727 49.376C68.919 49.7333 69.223 49.9467 69.639 50.016C70.0603 50.0853 70.5803 50.0693 71.199 49.968V51ZM65.535 43.368V42.36H71.199V43.368H65.535ZM73.0613 40.72V39.4H74.2373V40.72H73.0613ZM73.0613 51V42.36H74.2373V51H73.0613ZM80.2196 51.24C79.3503 51.24 78.6143 51.0453 78.0116 50.656C77.409 50.2667 76.9503 49.7307 76.6356 49.048C76.3263 48.36 76.1663 47.5707 76.1556 46.68C76.1663 45.7733 76.3316 44.9787 76.6516 44.296C76.9716 43.608 77.433 43.0747 78.0356 42.696C78.6383 42.312 79.369 42.12 80.2276 42.12C81.1023 42.12 81.8623 42.3333 82.5076 42.76C83.1583 43.1867 83.6036 43.7707 83.8436 44.512L82.6916 44.88C82.489 44.3627 82.1663 43.9627 81.7236 43.68C81.2863 43.392 80.785 43.248 80.2196 43.248C79.585 43.248 79.0596 43.3947 78.6436 43.688C78.2276 43.976 77.9183 44.3787 77.7156 44.896C77.513 45.4133 77.409 46.008 77.4036 46.68C77.4143 47.7147 77.6543 48.5467 78.1236 49.176C78.593 49.8 79.2916 50.112 80.2196 50.112C80.8063 50.112 81.305 49.9787 81.7156 49.712C82.1316 49.44 82.4463 49.0453 82.6596 48.528L83.8436 48.88C83.5236 49.648 83.0543 50.2347 82.4356 50.64C81.817 51.04 81.0783 51.24 80.2196 51.24ZM85.4206 51V39.24H86.5966V51H85.4206ZM92.651 51.24C91.8083 51.24 91.0777 51.0533 90.459 50.68C89.8457 50.3067 89.3683 49.7813 89.027 49.104C88.6857 48.4267 88.515 47.632 88.515 46.72C88.515 45.776 88.683 44.96 89.019 44.272C89.355 43.584 89.827 43.0533 90.435 42.68C91.0483 42.3067 91.771 42.12 92.603 42.12C93.4563 42.12 94.1843 42.3173 94.787 42.712C95.3897 43.1013 95.8457 43.6613 96.155 44.392C96.4643 45.1227 96.6057 45.9947 96.579 47.008H95.379V46.592C95.3577 45.472 95.115 44.6267 94.651 44.056C94.1923 43.4853 93.5203 43.2 92.635 43.2C91.707 43.2 90.995 43.5013 90.499 44.104C90.0083 44.7067 89.763 45.5653 89.763 46.68C89.763 47.768 90.0083 48.6133 90.499 49.216C90.995 49.8133 91.6963 50.112 92.603 50.112C93.2217 50.112 93.7603 49.9707 94.219 49.688C94.683 49.4 95.0483 48.9867 95.315 48.448L96.411 48.872C96.0697 49.624 95.5657 50.208 94.899 50.624C94.2377 51.0347 93.4883 51.24 92.651 51.24ZM89.347 47.008V46.024H95.947V47.008H89.347ZM101.578 51.232C100.565 51.232 99.7304 51.0133 99.0744 50.576C98.4237 50.1387 98.0237 49.5307 97.8744 48.752L99.0744 48.552C99.2024 49.0427 99.493 49.4347 99.9464 49.728C100.405 50.016 100.97 50.16 101.642 50.16C102.298 50.16 102.816 50.024 103.194 49.752C103.573 49.4747 103.762 49.0987 103.762 48.624C103.762 48.3573 103.701 48.1413 103.578 47.976C103.461 47.8053 103.218 47.648 102.85 47.504C102.482 47.36 101.933 47.1893 101.202 46.992C100.418 46.7787 99.805 46.5653 99.3624 46.352C98.9197 46.1387 98.605 45.8933 98.4184 45.616C98.2317 45.3333 98.1384 44.9893 98.1384 44.584C98.1384 44.0933 98.277 43.664 98.5544 43.296C98.8317 42.9227 99.2157 42.6347 99.7064 42.432C100.197 42.224 100.768 42.12 101.418 42.12C102.069 42.12 102.65 42.2267 103.162 42.44C103.68 42.648 104.096 42.9413 104.41 43.32C104.725 43.6987 104.912 44.1387 104.97 44.64L103.77 44.856C103.69 44.3493 103.437 43.9493 103.01 43.656C102.589 43.3573 102.053 43.2027 101.402 43.192C100.789 43.176 100.29 43.2933 99.9064 43.544C99.5224 43.7893 99.3304 44.1173 99.3304 44.528C99.3304 44.7573 99.3997 44.9547 99.5384 45.12C99.677 45.28 99.9277 45.432 100.29 45.576C100.658 45.72 101.181 45.8773 101.858 46.048C102.653 46.2507 103.277 46.464 103.73 46.688C104.184 46.912 104.506 47.176 104.698 47.48C104.89 47.784 104.986 48.16 104.986 48.608C104.986 49.424 104.682 50.0667 104.074 50.536C103.472 51 102.64 51.232 101.578 51.232Z" fill="#565973"/>
<path d="M10 84.3334L13.3334 80.1667H10.8334V74.3334H9.16669V80.1667H6.66669L10 84.3334Z" fill="#9397AD"/>
<path d="M16.6667 86H3.33335V80.1666H1.66669V86C1.66669 86.9191 2.41419 87.6666 3.33335 87.6666H16.6667C17.5859 87.6666 18.3334 86.9191 18.3334 86V80.1666H16.6667V86Z" fill="#9397AD"/>
<path d="M32.8 84.992L32.808 83.92L38.016 79.216C38.464 78.8107 38.76 78.4267 38.904 78.064C39.0533 77.696 39.128 77.312 39.128 76.912C39.128 76.4373 39.016 76.008 38.792 75.624C38.568 75.24 38.2667 74.936 37.888 74.712C37.5093 74.4827 37.0853 74.368 36.616 74.368C36.1253 74.368 35.688 74.4853 35.304 74.72C34.92 74.9547 34.616 75.264 34.392 75.648C34.1733 76.032 34.0667 76.4507 34.072 76.904H32.872C32.872 76.2053 33.0373 75.5787 33.368 75.024C33.6987 74.4693 34.1467 74.0347 34.712 73.72C35.2773 73.4 35.9173 73.24 36.632 73.24C37.3307 73.24 37.9573 73.4053 38.512 73.736C39.072 74.0613 39.512 74.504 39.832 75.064C40.1573 75.6187 40.32 76.2373 40.32 76.92C40.32 77.4 40.2613 77.824 40.144 78.192C40.032 78.5547 39.8533 78.8933 39.608 79.208C39.368 79.5173 39.0613 79.8373 38.688 80.168L34.064 84.344L33.88 83.864H40.32V84.992H32.8ZM45.645 85.24C45.0477 85.24 44.4957 85.1173 43.989 84.872C43.4823 84.6267 43.0503 84.288 42.693 83.856C42.3357 83.424 42.0797 82.928 41.925 82.368L43.053 82.064C43.1543 82.48 43.3383 82.84 43.605 83.144C43.8717 83.4427 44.1837 83.6747 44.541 83.84C44.9037 84.0053 45.2823 84.088 45.677 84.088C46.189 84.088 46.6477 83.9653 47.053 83.72C47.4637 83.4693 47.789 83.1387 48.029 82.728C48.269 82.3173 48.389 81.8667 48.389 81.376C48.389 80.8693 48.2637 80.4133 48.013 80.008C47.7623 79.5973 47.4317 79.272 47.021 79.032C46.6103 78.792 46.1623 78.672 45.677 78.672C45.133 78.672 44.6637 78.792 44.269 79.032C43.8743 79.2667 43.5597 79.5627 43.325 79.92L42.253 79.472L42.605 73.48H48.757V74.608H43.125L43.709 74.056L43.397 79.168L43.101 78.776C43.4317 78.3973 43.8317 78.1013 44.301 77.888C44.7703 77.6747 45.2637 77.568 45.781 77.568C46.4903 77.568 47.1303 77.7387 47.701 78.08C48.2717 78.416 48.725 78.872 49.061 79.448C49.397 80.024 49.565 80.6667 49.565 81.376C49.565 82.08 49.3863 82.7253 49.029 83.312C48.6717 83.8933 48.197 84.36 47.605 84.712C47.013 85.064 46.3597 85.24 45.645 85.24ZM58.0345 85.24C57.2292 85.24 56.5412 85.04 55.9705 84.64C55.3998 84.2347 54.9625 83.688 54.6585 83C54.3545 82.312 54.2025 81.536 54.2025 80.672C54.2025 79.8133 54.3518 79.04 54.6505 78.352C54.9545 77.664 55.3892 77.12 55.9545 76.72C56.5198 76.32 57.1972 76.12 57.9865 76.12C58.7972 76.12 59.4798 76.3173 60.0345 76.712C60.5892 77.1067 61.0078 77.648 61.2905 78.336C61.5785 79.0187 61.7225 79.7973 61.7225 80.672C61.7225 81.5307 61.5812 82.3067 61.2985 83C61.0158 83.688 60.5998 84.2347 60.0505 84.64C59.5012 85.04 58.8292 85.24 58.0345 85.24ZM58.1545 84.144C58.7678 84.144 59.2745 83.9947 59.6745 83.696C60.0745 83.3973 60.3732 82.9867 60.5705 82.464C60.7678 81.936 60.8665 81.3387 60.8665 80.672C60.8665 79.9947 60.7678 79.3973 60.5705 78.88C60.3732 78.3573 60.0745 77.9493 59.6745 77.656C59.2798 77.3627 58.7812 77.216 58.1785 77.216C57.5598 77.216 57.0478 77.368 56.6425 77.672C56.2372 77.976 55.9358 78.3893 55.7385 78.912C55.5465 79.4347 55.4505 80.0213 55.4505 80.672C55.4505 81.328 55.5492 81.92 55.7465 82.448C55.9492 82.9707 56.2505 83.384 56.6505 83.688C57.0505 83.992 57.5518 84.144 58.1545 84.144ZM60.8665 85V78.496H60.7385V73.48H61.9225V85H60.8665ZM67.7749 85.24C66.9162 85.24 66.1829 85.0453 65.5749 84.656C64.9669 84.2667 64.5002 83.728 64.1749 83.04C63.8495 82.352 63.6869 81.5627 63.6869 80.672C63.6869 79.7653 63.8522 78.9707 64.1829 78.288C64.5135 77.6053 64.9829 77.0747 65.5909 76.696C66.2042 76.312 66.9322 76.12 67.7749 76.12C68.6389 76.12 69.3749 76.3147 69.9829 76.704C70.5962 77.088 71.0629 77.624 71.3829 78.312C71.7082 78.9947 71.8709 79.7813 71.8709 80.672C71.8709 81.5787 71.7082 82.376 71.3829 83.064C71.0575 83.7467 70.5882 84.28 69.9749 84.664C69.3615 85.048 68.6282 85.24 67.7749 85.24ZM67.7749 84.112C68.7349 84.112 69.4495 83.7947 69.9189 83.16C70.3882 82.52 70.6229 81.6907 70.6229 80.672C70.6229 79.6267 70.3855 78.7947 69.9109 78.176C69.4415 77.5573 68.7295 77.248 67.7749 77.248C67.1295 77.248 66.5962 77.3947 66.1749 77.688C65.7589 77.976 65.4469 78.3787 65.2389 78.896C65.0362 79.408 64.9349 80 64.9349 80.672C64.9349 81.712 65.1749 82.5467 65.6549 83.176C66.1349 83.8 66.8415 84.112 67.7749 84.112ZM75.1631 85L72.5231 76.352L73.6991 76.36L75.7471 83.072L77.8031 76.36H78.8751L80.9311 83.072L82.9951 76.36H84.1631L81.5231 85H80.4991L78.3391 78.12L76.1871 85H75.1631ZM91.8444 85V80.592C91.8444 80.112 91.799 79.672 91.7084 79.272C91.6177 78.8667 91.471 78.5147 91.2684 78.216C91.071 77.912 90.8124 77.6773 90.4924 77.512C90.1777 77.3467 89.7937 77.264 89.3404 77.264C88.9244 77.264 88.5564 77.336 88.2364 77.48C87.9217 77.624 87.655 77.832 87.4364 78.104C87.223 78.3707 87.0604 78.696 86.9484 79.08C86.8364 79.464 86.7804 79.9013 86.7804 80.392L85.9484 80.208C85.9484 79.3227 86.103 78.5787 86.4124 77.976C86.7217 77.3733 87.1484 76.9173 87.6924 76.608C88.2364 76.2987 88.8604 76.144 89.5644 76.144C90.0817 76.144 90.5324 76.224 90.9164 76.384C91.3057 76.544 91.6337 76.76 91.9004 77.032C92.1724 77.304 92.391 77.616 92.5564 77.968C92.7217 78.3147 92.8417 78.6853 92.9164 79.08C92.991 79.4693 93.0284 79.8587 93.0284 80.248V85H91.8444ZM85.5964 85V76.36H86.6604V78.488H86.7804V85H85.5964ZM95.2644 85V73.24H96.4404V85H95.2644ZM102.447 85.24C101.588 85.24 100.855 85.0453 100.247 84.656C99.6388 84.2667 99.1721 83.728 98.8468 83.04C98.5214 82.352 98.3588 81.5627 98.3588 80.672C98.3588 79.7653 98.5241 78.9707 98.8548 78.288C99.1854 77.6053 99.6548 77.0747 100.263 76.696C100.876 76.312 101.604 76.12 102.447 76.12C103.311 76.12 104.047 76.3147 104.655 76.704C105.268 77.088 105.735 77.624 106.055 78.312C106.38 78.9947 106.543 79.7813 106.543 80.672C106.543 81.5787 106.38 82.376 106.055 83.064C105.729 83.7467 105.26 84.28 104.647 84.664C104.033 85.048 103.3 85.24 102.447 85.24ZM102.447 84.112C103.407 84.112 104.121 83.7947 104.591 83.16C105.06 82.52 105.295 81.6907 105.295 80.672C105.295 79.6267 105.057 78.7947 104.583 78.176C104.113 77.5573 103.401 77.248 102.447 77.248C101.801 77.248 101.268 77.3947 100.847 77.688C100.431 77.976 100.119 78.3787 99.9108 78.896C99.7081 79.408 99.6068 80 99.6068 80.672C99.6068 81.712 99.8468 82.5467 100.327 83.176C100.807 83.8 101.513 84.112 102.447 84.112ZM110.78 85.24C110.129 85.24 109.582 85.1227 109.14 84.888C108.702 84.6533 108.374 84.3413 108.156 83.952C107.937 83.5627 107.828 83.1387 107.828 82.68C107.828 82.2107 107.921 81.8107 108.108 81.48C108.3 81.144 108.558 80.8693 108.884 80.656C109.214 80.4427 109.596 80.28 110.028 80.168C110.465 80.0613 110.948 79.968 111.476 79.888C112.009 79.8027 112.529 79.7307 113.036 79.672C113.548 79.608 113.996 79.5467 114.38 79.488L113.964 79.744C113.98 78.8907 113.814 78.2587 113.468 77.848C113.121 77.4373 112.518 77.232 111.66 77.232C111.068 77.232 110.566 77.3653 110.156 77.632C109.75 77.8987 109.465 78.32 109.299 78.896L108.156 78.56C108.353 77.7867 108.75 77.1867 109.348 76.76C109.945 76.3333 110.721 76.12 111.676 76.12C112.465 76.12 113.134 76.2693 113.684 76.568C114.238 76.8613 114.63 77.288 114.86 77.848C114.966 78.0987 115.036 78.3787 115.068 78.688C115.1 78.9973 115.116 79.312 115.116 79.632V85H114.068V82.832L114.372 82.96C114.078 83.7013 113.622 84.2667 113.004 84.656C112.385 85.0453 111.644 85.24 110.78 85.24ZM110.916 84.224C111.465 84.224 111.945 84.1253 112.356 83.928C112.766 83.7307 113.097 83.4613 113.348 83.12C113.598 82.7733 113.761 82.384 113.836 81.952C113.9 81.6747 113.934 81.3707 113.94 81.04C113.945 80.704 113.948 80.4533 113.948 80.288L114.396 80.52C113.996 80.5733 113.561 80.6267 113.092 80.68C112.628 80.7333 112.169 80.7947 111.716 80.864C111.268 80.9333 110.862 81.016 110.5 81.112C110.254 81.1813 110.017 81.28 109.788 81.408C109.558 81.5307 109.369 81.696 109.22 81.904C109.076 82.112 109.004 82.3707 109.004 82.68C109.004 82.9307 109.065 83.1733 109.188 83.408C109.316 83.6427 109.518 83.8373 109.796 83.992C110.078 84.1467 110.452 84.224 110.916 84.224ZM120.55 85.24C119.745 85.24 119.057 85.04 118.486 84.64C117.915 84.2347 117.478 83.688 117.174 83C116.87 82.312 116.718 81.536 116.718 80.672C116.718 79.8133 116.867 79.04 117.166 78.352C117.47 77.664 117.905 77.12 118.47 76.72C119.035 76.32 119.713 76.12 120.502 76.12C121.313 76.12 121.995 76.3173 122.55 76.712C123.105 77.1067 123.523 77.648 123.806 78.336C124.094 79.0187 124.238 79.7973 124.238 80.672C124.238 81.5307 124.097 82.3067 123.814 83C123.531 83.688 123.115 84.2347 122.566 84.64C122.017 85.04 121.345 85.24 120.55 85.24ZM120.67 84.144C121.283 84.144 121.79 83.9947 122.19 83.696C122.59 83.3973 122.889 82.9867 123.086 82.464C123.283 81.936 123.382 81.3387 123.382 80.672C123.382 79.9947 123.283 79.3973 123.086 78.88C122.889 78.3573 122.59 77.9493 122.19 77.656C121.795 77.3627 121.297 77.216 120.694 77.216C120.075 77.216 119.563 77.368 119.158 77.672C118.753 77.976 118.451 78.3893 118.254 78.912C118.062 79.4347 117.966 80.0213 117.966 80.672C117.966 81.328 118.065 81.92 118.262 82.448C118.465 82.9707 118.766 83.384 119.166 83.688C119.566 83.992 120.067 84.144 120.67 84.144ZM123.382 85V78.496H123.254V73.48H124.438V85H123.382ZM129.155 85.24C128.504 85.24 127.957 85.1227 127.515 84.888C127.077 84.6533 126.749 84.3413 126.531 83.952C126.312 83.5627 126.203 83.1387 126.203 82.68C126.203 82.2107 126.296 81.8107 126.483 81.48C126.675 81.144 126.933 80.8693 127.259 80.656C127.589 80.4427 127.971 80.28 128.403 80.168C128.84 80.0613 129.323 79.968 129.851 79.888C130.384 79.8027 130.904 79.7307 131.411 79.672C131.923 79.608 132.371 79.5467 132.755 79.488L132.339 79.744C132.355 78.8907 132.189 78.2587 131.843 77.848C131.496 77.4373 130.893 77.232 130.035 77.232C129.443 77.232 128.941 77.3653 128.531 77.632C128.125 77.8987 127.84 78.32 127.674 78.896L126.531 78.56C126.728 77.7867 127.125 77.1867 127.723 76.76C128.32 76.3333 129.096 76.12 130.051 76.12C130.84 76.12 131.509 76.2693 132.059 76.568C132.613 76.8613 133.005 77.288 133.235 77.848C133.341 78.0987 133.411 78.3787 133.443 78.688C133.475 78.9973 133.491 79.312 133.491 79.632V85H132.443V82.832L132.747 82.96C132.453 83.7013 131.997 84.2667 131.379 84.656C130.76 85.0453 130.019 85.24 129.155 85.24ZM129.291 84.224C129.84 84.224 130.32 84.1253 130.731 83.928C131.141 83.7307 131.472 83.4613 131.723 83.12C131.973 82.7733 132.136 82.384 132.211 81.952C132.275 81.6747 132.309 81.3707 132.315 81.04C132.32 80.704 132.323 80.4533 132.323 80.288L132.771 80.52C132.371 80.5733 131.936 80.6267 131.467 80.68C131.003 80.7333 130.544 80.7947 130.091 80.864C129.643 80.9333 129.237 81.016 128.875 81.112C128.629 81.1813 128.392 81.28 128.163 81.408C127.933 81.5307 127.744 81.696 127.595 81.904C127.451 82.112 127.379 82.3707 127.379 82.68C127.379 82.9307 127.44 83.1733 127.562 83.408C127.691 83.6427 127.893 83.8373 128.171 83.992C128.453 84.1467 128.827 84.224 129.291 84.224ZM139.453 85.24C138.658 85.24 137.986 85.04 137.437 84.64C136.888 84.2347 136.472 83.688 136.189 83C135.906 82.3067 135.765 81.5307 135.765 80.672C135.765 79.7973 135.906 79.0187 136.189 78.336C136.477 77.648 136.898 77.1067 137.453 76.712C138.008 76.3173 138.69 76.12 139.501 76.12C140.29 76.12 140.968 76.32 141.533 76.72C142.098 77.12 142.53 77.664 142.829 78.352C143.133 79.04 143.285 79.8133 143.285 80.672C143.285 81.536 143.133 82.312 142.829 83C142.525 83.688 142.088 84.2347 141.517 84.64C140.946 85.04 140.258 85.24 139.453 85.24ZM135.565 85V73.48H136.749V78.496H136.621V85H135.565ZM139.333 84.144C139.936 84.144 140.437 83.992 140.837 83.688C141.237 83.384 141.536 82.9707 141.733 82.448C141.936 81.92 142.037 81.328 142.037 80.672C142.037 80.0213 141.938 79.4347 141.741 78.912C141.544 78.3893 141.242 77.976 140.837 77.672C140.437 77.368 139.928 77.216 139.309 77.216C138.706 77.216 138.205 77.3627 137.805 77.656C137.41 77.9493 137.114 78.3573 136.917 78.88C136.72 79.3973 136.621 79.9947 136.621 80.672C136.621 81.3387 136.72 81.936 136.917 82.464C137.114 82.9867 137.413 83.3973 137.813 83.696C138.213 83.9947 138.72 84.144 139.333 84.144ZM145.202 85V73.24H146.378V85H145.202ZM152.432 85.24C151.59 85.24 150.859 85.0533 150.24 84.68C149.627 84.3067 149.15 83.7813 148.808 83.104C148.467 82.4267 148.296 81.632 148.296 80.72C148.296 79.776 148.464 78.96 148.8 78.272C149.136 77.584 149.608 77.0533 150.216 76.68C150.83 76.3067 151.552 76.12 152.384 76.12C153.238 76.12 153.966 76.3173 154.568 76.712C155.171 77.1013 155.627 77.6613 155.936 78.392C156.246 79.1227 156.387 79.9947 156.36 81.008H155.16V80.592C155.139 79.472 154.896 78.6267 154.432 78.056C153.974 77.4853 153.302 77.2 152.416 77.2C151.488 77.2 150.776 77.5013 150.28 78.104C149.79 78.7067 149.544 79.5653 149.544 80.68C149.544 81.768 149.79 82.6133 150.28 83.216C150.776 83.8133 151.478 84.112 152.384 84.112C153.003 84.112 153.542 83.9707 154 83.688C154.464 83.4 154.83 82.9867 155.096 82.448L156.192 82.872C155.851 83.624 155.347 84.208 154.68 84.624C154.019 85.0347 153.27 85.24 152.432 85.24ZM149.128 81.008V80.024H155.728V81.008H149.128ZM161.339 85V76.36H162.395V78.44L162.187 78.168C162.283 77.912 162.408 77.6773 162.563 77.464C162.717 77.2453 162.885 77.0667 163.067 76.928C163.291 76.7307 163.552 76.5813 163.851 76.48C164.149 76.3733 164.451 76.312 164.755 76.296C165.059 76.2747 165.336 76.296 165.587 76.36V77.464C165.272 77.384 164.928 77.3653 164.555 77.408C164.181 77.4507 163.837 77.6 163.523 77.856C163.235 78.08 163.019 78.3493 162.875 78.664C162.731 78.9733 162.635 79.304 162.587 79.656C162.539 80.0027 162.515 80.3467 162.515 80.688V85H161.339ZM170.604 85.24C169.761 85.24 169.031 85.0533 168.412 84.68C167.799 84.3067 167.321 83.7813 166.98 83.104C166.639 82.4267 166.468 81.632 166.468 80.72C166.468 79.776 166.636 78.96 166.972 78.272C167.308 77.584 167.78 77.0533 168.388 76.68C169.001 76.3067 169.724 76.12 170.556 76.12C171.409 76.12 172.137 76.3173 172.74 76.712C173.343 77.1013 173.799 77.6613 174.108 78.392C174.417 79.1227 174.559 79.9947 174.532 81.008H173.332V80.592C173.311 79.472 173.068 78.6267 172.604 78.056C172.145 77.4853 171.473 77.2 170.588 77.2C169.66 77.2 168.948 77.5013 168.452 78.104C167.961 78.7067 167.716 79.5653 167.716 80.68C167.716 81.768 167.961 82.6133 168.452 83.216C168.948 83.8133 169.649 84.112 170.556 84.112C171.175 84.112 171.713 83.9707 172.172 83.688C172.636 83.4 173.001 82.9867 173.268 82.448L174.364 82.872C174.023 83.624 173.519 84.208 172.852 84.624C172.191 85.0347 171.441 85.24 170.604 85.24ZM167.3 81.008V80.024H173.9V81.008H167.3ZM179.532 85.232C178.518 85.232 177.684 85.0133 177.028 84.576C176.377 84.1387 175.977 83.5307 175.828 82.752L177.028 82.552C177.156 83.0427 177.446 83.4347 177.9 83.728C178.358 84.016 178.924 84.16 179.595 84.16C180.252 84.16 180.769 84.024 181.148 83.752C181.526 83.4747 181.716 83.0987 181.716 82.624C181.716 82.3573 181.654 82.1413 181.532 81.976C181.414 81.8053 181.172 81.648 180.804 81.504C180.436 81.36 179.886 81.1893 179.156 80.992C178.372 80.7787 177.758 80.5653 177.316 80.352C176.873 80.1387 176.558 79.8933 176.372 79.616C176.185 79.3333 176.092 78.9893 176.092 78.584C176.092 78.0933 176.23 77.664 176.508 77.296C176.785 76.9227 177.169 76.6347 177.66 76.432C178.15 76.224 178.721 76.12 179.372 76.12C180.022 76.12 180.604 76.2267 181.116 76.44C181.633 76.648 182.049 76.9413 182.364 77.32C182.678 77.6987 182.865 78.1387 182.924 78.64L181.724 78.856C181.644 78.3493 181.39 77.9493 180.964 77.656C180.542 77.3573 180.006 77.2027 179.356 77.192C178.742 77.176 178.244 77.2933 177.86 77.544C177.476 77.7893 177.284 78.1173 177.284 78.528C177.284 78.7573 177.353 78.9547 177.492 79.12C177.63 79.28 177.881 79.432 178.244 79.576C178.612 79.72 179.134 79.8773 179.812 80.048C180.606 80.2507 181.23 80.464 181.684 80.688C182.137 80.912 182.46 81.176 182.652 81.48C182.844 81.784 182.94 82.16 182.94 82.608C182.94 83.424 182.636 84.0667 182.028 84.536C181.425 85 180.593 85.232 179.532 85.232ZM188.322 85.24C187.463 85.24 186.73 85.0453 186.122 84.656C185.514 84.2667 185.047 83.728 184.722 83.04C184.396 82.352 184.234 81.5627 184.234 80.672C184.234 79.7653 184.399 78.9707 184.73 78.288C185.06 77.6053 185.53 77.0747 186.138 76.696C186.751 76.312 187.479 76.12 188.322 76.12C189.186 76.12 189.922 76.3147 190.53 76.704C191.143 77.088 191.61 77.624 191.93 78.312C192.255 78.9947 192.418 79.7813 192.418 80.672C192.418 81.5787 192.255 82.376 191.93 83.064C191.604 83.7467 191.135 84.28 190.522 84.664C189.908 85.048 189.175 85.24 188.322 85.24ZM188.322 84.112C189.282 84.112 189.996 83.7947 190.466 83.16C190.935 82.52 191.17 81.6907 191.17 80.672C191.17 79.6267 190.932 78.7947 190.458 78.176C189.988 77.5573 189.276 77.248 188.322 77.248C187.676 77.248 187.143 77.3947 186.722 77.688C186.306 77.976 185.994 78.3787 185.786 78.896C185.583 79.408 185.482 80 185.482 80.672C185.482 81.712 185.722 82.5467 186.202 83.176C186.682 83.8 187.388 84.112 188.322 84.112ZM197.487 85.216C196.969 85.216 196.516 85.136 196.127 84.976C195.743 84.816 195.415 84.6 195.143 84.328C194.876 84.056 194.66 83.7467 194.495 83.4C194.329 83.048 194.209 82.6773 194.135 82.288C194.06 81.8933 194.023 81.5013 194.023 81.112V76.36H195.207V80.768C195.207 81.2427 195.252 81.6827 195.343 82.088C195.433 82.4933 195.577 82.848 195.775 83.152C195.977 83.4507 196.236 83.6827 196.551 83.848C196.871 84.0133 197.257 84.096 197.711 84.096C198.127 84.096 198.492 84.024 198.807 83.88C199.127 83.736 199.393 83.5307 199.607 83.264C199.825 82.992 199.991 82.664 200.103 82.28C200.215 81.8907 200.271 81.4533 200.271 80.968L201.102 81.152C201.102 82.0373 200.948 82.7813 200.639 83.384C200.329 83.9867 199.903 84.4427 199.359 84.752C198.815 85.0613 198.191 85.216 197.487 85.216ZM200.391 85V82.872H200.271V76.36H201.447V85H200.391ZM203.683 85V76.36H204.739V78.44L204.531 78.168C204.627 77.912 204.752 77.6773 204.907 77.464C205.061 77.2453 205.229 77.0667 205.411 76.928C205.635 76.7307 205.896 76.5813 206.195 76.48C206.493 76.3733 206.795 76.312 207.099 76.296C207.403 76.2747 207.68 76.296 207.931 76.36V77.464C207.616 77.384 207.272 77.3653 206.899 77.408C206.525 77.4507 206.181 77.6 205.867 77.856C205.579 78.08 205.363 78.3493 205.219 78.664C205.075 78.9733 204.979 79.304 204.931 79.656C204.883 80.0027 204.859 80.3467 204.859 80.688V85H203.683ZM212.876 85.24C212.007 85.24 211.271 85.0453 210.668 84.656C210.065 84.2667 209.607 83.7307 209.292 83.048C208.983 82.36 208.823 81.5707 208.812 80.68C208.823 79.7733 208.988 78.9787 209.308 78.296C209.628 77.608 210.089 77.0747 210.692 76.696C211.295 76.312 212.025 76.12 212.884 76.12C213.759 76.12 214.519 76.3333 215.164 76.76C215.815 77.1867 216.26 77.7707 216.5 78.512L215.348 78.88C215.145 78.3627 214.823 77.9627 214.38 77.68C213.943 77.392 213.441 77.248 212.876 77.248C212.241 77.248 211.716 77.3947 211.3 77.688C210.884 77.976 210.575 78.3787 210.372 78.896C210.169 79.4133 210.065 80.008 210.06 80.68C210.071 81.7147 210.311 82.5467 210.78 83.176C211.249 83.8 211.948 84.112 212.876 84.112C213.463 84.112 213.961 83.9787 214.372 83.712C214.788 83.44 215.103 83.0453 215.316 82.528L216.5 82.88C216.18 83.648 215.711 84.2347 215.092 84.64C214.473 85.04 213.735 85.24 212.876 85.24ZM221.573 85.24C220.73 85.24 220 85.0533 219.381 84.68C218.768 84.3067 218.29 83.7813 217.949 83.104C217.608 82.4267 217.437 81.632 217.437 80.72C217.437 79.776 217.605 78.96 217.941 78.272C218.277 77.584 218.749 77.0533 219.357 76.68C219.97 76.3067 220.693 76.12 221.525 76.12C222.378 76.12 223.106 76.3173 223.709 76.712C224.312 77.1013 224.768 77.6613 225.077 78.392C225.386 79.1227 225.528 79.9947 225.501 81.008H224.301V80.592C224.28 79.472 224.037 78.6267 223.573 78.056C223.114 77.4853 222.442 77.2 221.557 77.2C220.629 77.2 219.917 77.5013 219.421 78.104C218.93 78.7067 218.685 79.5653 218.685 80.68C218.685 81.768 218.93 82.6133 219.421 83.216C219.917 83.8133 220.618 84.112 221.525 84.112C222.144 84.112 222.682 83.9707 223.141 83.688C223.605 83.4 223.97 82.9867 224.237 82.448L225.333 82.872C224.992 83.624 224.488 84.208 223.821 84.624C223.16 85.0347 222.41 85.24 221.573 85.24ZM218.269 81.008V80.024H224.869V81.008H218.269ZM230.5 85.232C229.487 85.232 228.652 85.0133 227.996 84.576C227.346 84.1387 226.946 83.5307 226.796 82.752L227.996 82.552C228.124 83.0427 228.415 83.4347 228.868 83.728C229.327 84.016 229.892 84.16 230.564 84.16C231.22 84.16 231.738 84.024 232.116 83.752C232.495 83.4747 232.684 83.0987 232.684 82.624C232.684 82.3573 232.623 82.1413 232.5 81.976C232.383 81.8053 232.14 81.648 231.772 81.504C231.404 81.36 230.855 81.1893 230.124 80.992C229.34 80.7787 228.727 80.5653 228.284 80.352C227.842 80.1387 227.527 79.8933 227.34 79.616C227.154 79.3333 227.06 78.9893 227.06 78.584C227.06 78.0933 227.199 77.664 227.476 77.296C227.754 76.9227 228.138 76.6347 228.628 76.432C229.119 76.224 229.69 76.12 230.34 76.12C230.991 76.12 231.572 76.2267 232.084 76.44C232.602 76.648 233.018 76.9413 233.332 77.32C233.647 77.6987 233.834 78.1387 233.892 78.64L232.692 78.856C232.612 78.3493 232.359 77.9493 231.932 77.656C231.511 77.3573 230.975 77.2027 230.324 77.192C229.711 77.176 229.212 77.2933 228.828 77.544C228.444 77.7893 228.252 78.1173 228.252 78.528C228.252 78.7573 228.322 78.9547 228.46 79.12C228.599 79.28 228.85 79.432 229.212 79.576C229.58 79.72 230.103 79.8773 230.78 80.048C231.575 80.2507 232.199 80.464 232.652 80.688C233.106 80.912 233.428 81.176 233.62 81.48C233.812 81.784 233.908 82.16 233.908 82.608C233.908 83.424 233.604 84.0667 232.996 84.536C232.394 85 231.562 85.232 230.5 85.232Z" fill="#565973"/>
<path d="M14.1667 110.833C12.4217 110.833 11.1575 112.139 9.99919 113.622C8.84085 112.139 7.57752 110.833 5.83335 110.833C3.53585 110.833 1.66669 112.703 1.66669 115C1.66669 116.112 2.09919 117.158 2.88252 117.945C3.66835 118.733 4.71335 119.167 5.82502 119.167C5.82502 119.167 5.83419 119.167 5.83502 119.167C7.57585 119.163 8.83919 117.857 9.99835 116.374C11.1575 117.859 12.4217 119.167 14.1667 119.167C16.4642 119.167 18.3334 117.298 18.3334 115C18.3334 112.703 16.4642 110.833 14.1667 110.833ZM5.83169 117.5L5.82502 118.333V117.5C5.15919 117.5 4.53335 117.24 4.06335 116.768C3.59252 116.296 3.33335 115.668 3.33335 115C3.33335 113.622 4.45502 112.5 5.83335 112.5C6.94169 112.5 7.96669 113.698 8.95502 114.998C7.96502 116.298 6.94002 117.498 5.83169 117.5ZM14.1667 117.5C13.0584 117.5 12.0325 116.3 11.0425 114.998C12.0317 113.698 13.0567 112.5 14.1667 112.5C15.545 112.5 16.6667 113.622 16.6667 115C16.6667 116.378 15.545 117.5 14.1667 117.5Z" fill="#9397AD"/>
<path d="M33.12 119V107.48H39.736V108.656H34.296V112.656H38.776V113.824H34.296V119H33.12ZM44.4865 119.216C43.9692 119.216 43.5158 119.136 43.1265 118.976C42.7425 118.816 42.4145 118.6 42.1425 118.328C41.8758 118.056 41.6598 117.747 41.4945 117.4C41.3292 117.048 41.2092 116.677 41.1345 116.288C41.0598 115.893 41.0225 115.501 41.0225 115.112V110.36H42.2065V114.768C42.2065 115.243 42.2518 115.683 42.3425 116.088C42.4332 116.493 42.5772 116.848 42.7745 117.152C42.9772 117.451 43.2358 117.683 43.5505 117.848C43.8705 118.013 44.2572 118.096 44.7105 118.096C45.1265 118.096 45.4918 118.024 45.8065 117.88C46.1265 117.736 46.3932 117.531 46.6065 117.264C46.8252 116.992 46.9905 116.664 47.1025 116.28C47.2145 115.891 47.2705 115.453 47.2705 114.968L48.1025 115.152C48.1025 116.037 47.9478 116.781 47.6385 117.384C47.3292 117.987 46.9025 118.443 46.3585 118.752C45.8145 119.061 45.1905 119.216 44.4865 119.216ZM47.3905 119V116.872H47.2705V110.36H48.4465V119H47.3905ZM50.8425 119V107.24H52.0185V119H50.8425ZM54.5769 119V107.24H55.7529V119H54.5769ZM61.5144 119V107.24H62.6904V119H61.5144ZM65.2488 108.72V107.4H66.4248V108.72H65.2488ZM65.2488 119V110.36H66.4248V119H65.2488ZM69.6791 119V109.72C69.6791 109.496 69.6898 109.275 69.7111 109.056C69.7378 108.837 69.7885 108.629 69.8631 108.432C69.9378 108.229 70.0551 108.043 70.2151 107.872C70.3911 107.68 70.5831 107.541 70.7911 107.456C70.9991 107.365 71.2151 107.307 71.4391 107.28C71.6685 107.253 71.8925 107.24 72.1111 107.24H73.2151V108.232H72.1911C71.7431 108.232 71.4071 108.341 71.1831 108.56C70.9645 108.779 70.8551 109.123 70.8551 109.592V119H69.6791ZM68.1831 111.368V110.36H73.2151V111.368H68.1831ZM77.8385 119.24C76.9958 119.24 76.2652 119.053 75.6465 118.68C75.0332 118.307 74.5558 117.781 74.2145 117.104C73.8732 116.427 73.7025 115.632 73.7025 114.72C73.7025 113.776 73.8705 112.96 74.2065 112.272C74.5425 111.584 75.0145 111.053 75.6225 110.68C76.2358 110.307 76.9585 110.12 77.7905 110.12C78.6438 110.12 79.3718 110.317 79.9745 110.712C80.5772 111.101 81.0332 111.661 81.3425 112.392C81.6518 113.123 81.7932 113.995 81.7665 115.008H80.5665V114.592C80.5452 113.472 80.3025 112.627 79.8385 112.056C79.3798 111.485 78.7078 111.2 77.8225 111.2C76.8945 111.2 76.1825 111.501 75.6865 112.104C75.1958 112.707 74.9505 113.565 74.9505 114.68C74.9505 115.768 75.1958 116.613 75.6865 117.216C76.1825 117.813 76.8838 118.112 77.7905 118.112C78.4092 118.112 78.9478 117.971 79.4065 117.688C79.8705 117.4 80.2358 116.987 80.5025 116.448L81.5985 116.872C81.2572 117.624 80.7532 118.208 80.0865 118.624C79.4252 119.035 78.6758 119.24 77.8385 119.24ZM74.5345 115.008V114.024H81.1345V115.008H74.5345ZM88.2459 119C87.7605 119.101 87.2805 119.141 86.8059 119.12C86.3365 119.099 85.9152 118.997 85.5419 118.816C85.1739 118.635 84.8939 118.352 84.7019 117.968C84.5472 117.648 84.4619 117.325 84.4459 117C84.4352 116.669 84.4299 116.293 84.4299 115.872V107.96H85.5979V115.824C85.5979 116.187 85.6005 116.491 85.6059 116.736C85.6165 116.976 85.6725 117.189 85.7739 117.376C85.9659 117.733 86.2699 117.947 86.6859 118.016C87.1072 118.085 87.6272 118.069 88.2459 117.968V119ZM82.5819 111.368V110.36H88.2459V111.368H82.5819ZM90.1081 108.72V107.4H91.2841V108.72H90.1081ZM90.1081 119V110.36H91.2841V119H90.1081ZM103.987 119L103.995 113.328C103.995 112.661 103.808 112.139 103.435 111.76C103.067 111.376 102.597 111.184 102.027 111.184C101.701 111.184 101.384 111.259 101.075 111.408C100.765 111.557 100.509 111.797 100.307 112.128C100.109 112.459 100.011 112.891 100.011 113.424L99.3145 113.224C99.2985 112.605 99.4185 112.064 99.6745 111.6C99.9358 111.136 100.293 110.776 100.747 110.52C101.205 110.259 101.723 110.128 102.299 110.128C103.168 110.128 103.864 110.397 104.387 110.936C104.909 111.469 105.171 112.192 105.171 113.104L105.163 119H103.987ZM93.6745 119V110.36H94.7305V112.488H94.8585V119H93.6745ZM98.8425 119L98.8505 113.408C98.8505 112.72 98.6665 112.179 98.2985 111.784C97.9358 111.384 97.4558 111.184 96.8585 111.184C96.2612 111.184 95.7785 111.389 95.4105 111.8C95.0425 112.205 94.8585 112.747 94.8585 113.424L94.1545 113.04C94.1545 112.485 94.2852 111.989 94.5465 111.552C94.8078 111.109 95.1652 110.763 95.6185 110.512C96.0718 110.256 96.5865 110.128 97.1625 110.128C97.7118 110.128 98.1998 110.245 98.6265 110.48C99.0585 110.715 99.3972 111.056 99.6425 111.504C99.8878 111.952 100.011 112.496 100.011 113.136L100.003 119H98.8425ZM110.854 119.24C110.011 119.24 109.281 119.053 108.662 118.68C108.049 118.307 107.571 117.781 107.23 117.104C106.889 116.427 106.718 115.632 106.718 114.72C106.718 113.776 106.886 112.96 107.222 112.272C107.558 111.584 108.03 111.053 108.638 110.68C109.251 110.307 109.974 110.12 110.806 110.12C111.659 110.12 112.387 110.317 112.99 110.712C113.593 111.101 114.049 111.661 114.358 112.392C114.667 113.123 114.809 113.995 114.782 115.008H113.582V114.592C113.561 113.472 113.318 112.627 112.854 112.056C112.395 111.485 111.723 111.2 110.838 111.2C109.91 111.2 109.198 111.501 108.702 112.104C108.211 112.707 107.966 113.565 107.966 114.68C107.966 115.768 108.211 116.613 108.702 117.216C109.198 117.813 109.899 118.112 110.806 118.112C111.425 118.112 111.963 117.971 112.422 117.688C112.886 117.4 113.251 116.987 113.518 116.448L114.614 116.872C114.273 117.624 113.769 118.208 113.102 118.624C112.441 119.035 111.691 119.24 110.854 119.24ZM107.55 115.008V114.024H114.15V115.008H107.55ZM122.233 119.24C121.582 119.24 121.035 119.123 120.593 118.888C120.155 118.653 119.827 118.341 119.609 117.952C119.39 117.563 119.281 117.139 119.281 116.68C119.281 116.211 119.374 115.811 119.561 115.48C119.753 115.144 120.011 114.869 120.337 114.656C120.667 114.443 121.049 114.28 121.481 114.168C121.918 114.061 122.401 113.968 122.929 113.888C123.462 113.803 123.982 113.731 124.489 113.672C125.001 113.608 125.449 113.547 125.833 113.488L125.417 113.744C125.433 112.891 125.267 112.259 124.921 111.848C124.574 111.437 123.971 111.232 123.113 111.232C122.521 111.232 122.019 111.365 121.609 111.632C121.203 111.899 120.918 112.32 120.753 112.896L119.609 112.56C119.806 111.787 120.203 111.187 120.801 110.76C121.398 110.333 122.174 110.12 123.129 110.12C123.918 110.12 124.587 110.269 125.137 110.568C125.691 110.861 126.083 111.288 126.313 111.848C126.419 112.099 126.489 112.379 126.521 112.688C126.553 112.997 126.569 113.312 126.569 113.632V119H125.521V116.832L125.825 116.96C125.531 117.701 125.075 118.267 124.457 118.656C123.838 119.045 123.097 119.24 122.233 119.24ZM122.369 118.224C122.918 118.224 123.398 118.125 123.809 117.928C124.219 117.731 124.55 117.461 124.801 117.12C125.051 116.773 125.214 116.384 125.289 115.952C125.353 115.675 125.387 115.371 125.393 115.04C125.398 114.704 125.401 114.453 125.401 114.288L125.849 114.52C125.449 114.573 125.014 114.627 124.545 114.68C124.081 114.733 123.622 114.795 123.169 114.864C122.721 114.933 122.315 115.016 121.953 115.112C121.707 115.181 121.47 115.28 121.241 115.408C121.011 115.531 120.822 115.696 120.673 115.904C120.529 116.112 120.457 116.371 120.457 116.68C120.457 116.931 120.518 117.173 120.641 117.408C120.769 117.643 120.971 117.837 121.249 117.992C121.531 118.147 121.905 118.224 122.369 118.224ZM132.235 119.24C131.366 119.24 130.63 119.045 130.027 118.656C129.425 118.267 128.966 117.731 128.651 117.048C128.342 116.36 128.182 115.571 128.171 114.68C128.182 113.773 128.347 112.979 128.667 112.296C128.987 111.608 129.449 111.075 130.051 110.696C130.654 110.312 131.385 110.12 132.243 110.12C133.118 110.12 133.878 110.333 134.523 110.76C135.174 111.187 135.619 111.771 135.859 112.512L134.707 112.88C134.505 112.363 134.182 111.963 133.739 111.68C133.302 111.392 132.801 111.248 132.235 111.248C131.601 111.248 131.075 111.395 130.659 111.688C130.243 111.976 129.934 112.379 129.731 112.896C129.529 113.413 129.425 114.008 129.419 114.68C129.43 115.715 129.67 116.547 130.139 117.176C130.609 117.8 131.307 118.112 132.235 118.112C132.822 118.112 133.321 117.979 133.731 117.712C134.147 117.44 134.462 117.045 134.675 116.528L135.859 116.88C135.539 117.648 135.07 118.235 134.451 118.64C133.833 119.04 133.094 119.24 132.235 119.24ZM140.86 119.24C139.991 119.24 139.255 119.045 138.652 118.656C138.05 118.267 137.591 117.731 137.276 117.048C136.967 116.36 136.807 115.571 136.796 114.68C136.807 113.773 136.972 112.979 137.292 112.296C137.612 111.608 138.074 111.075 138.676 110.696C139.279 110.312 140.01 110.12 140.868 110.12C141.743 110.12 142.503 110.333 143.148 110.76C143.799 111.187 144.244 111.771 144.484 112.512L143.332 112.88C143.13 112.363 142.807 111.963 142.364 111.68C141.927 111.392 141.426 111.248 140.86 111.248C140.226 111.248 139.7 111.395 139.284 111.688C138.868 111.976 138.559 112.379 138.356 112.896C138.154 113.413 138.05 114.008 138.044 114.68C138.055 115.715 138.295 116.547 138.764 117.176C139.234 117.8 139.932 118.112 140.86 118.112C141.447 118.112 141.946 117.979 142.356 117.712C142.772 117.44 143.087 117.045 143.3 116.528L144.484 116.88C144.164 117.648 143.695 118.235 143.076 118.64C142.458 119.04 141.719 119.24 140.86 119.24ZM149.557 119.24C148.715 119.24 147.984 119.053 147.365 118.68C146.752 118.307 146.275 117.781 145.933 117.104C145.592 116.427 145.421 115.632 145.421 114.72C145.421 113.776 145.589 112.96 145.925 112.272C146.261 111.584 146.733 111.053 147.341 110.68C147.955 110.307 148.677 110.12 149.509 110.12C150.363 110.12 151.091 110.317 151.693 110.712C152.296 111.101 152.752 111.661 153.061 112.392C153.371 113.123 153.512 113.995 153.485 115.008H152.285V114.592C152.264 113.472 152.021 112.627 151.557 112.056C151.099 111.485 150.427 111.2 149.541 111.2C148.613 111.2 147.901 111.501 147.405 112.104C146.915 112.707 146.669 113.565 146.669 114.68C146.669 115.768 146.915 116.613 147.405 117.216C147.901 117.813 148.603 118.112 149.509 118.112C150.128 118.112 150.667 117.971 151.125 117.688C151.589 117.4 151.955 116.987 152.221 116.448L153.317 116.872C152.976 117.624 152.472 118.208 151.805 118.624C151.144 119.035 150.395 119.24 149.557 119.24ZM146.253 115.008V114.024H152.853V115.008H146.253ZM158.485 119.232C157.471 119.232 156.637 119.013 155.981 118.576C155.33 118.139 154.93 117.531 154.781 116.752L155.981 116.552C156.109 117.043 156.399 117.435 156.853 117.728C157.311 118.016 157.877 118.16 158.549 118.16C159.205 118.16 159.722 118.024 160.101 117.752C160.479 117.475 160.669 117.099 160.669 116.624C160.669 116.357 160.607 116.141 160.485 115.976C160.367 115.805 160.125 115.648 159.757 115.504C159.389 115.36 158.839 115.189 158.109 114.992C157.325 114.779 156.711 114.565 156.269 114.352C155.826 114.139 155.511 113.893 155.325 113.616C155.138 113.333 155.045 112.989 155.045 112.584C155.045 112.093 155.183 111.664 155.461 111.296C155.738 110.923 156.122 110.635 156.613 110.432C157.103 110.224 157.674 110.12 158.325 110.12C158.975 110.12 159.557 110.227 160.069 110.44C160.586 110.648 161.002 110.941 161.317 111.32C161.631 111.699 161.818 112.139 161.877 112.64L160.677 112.856C160.597 112.349 160.343 111.949 159.917 111.656C159.495 111.357 158.959 111.203 158.309 111.192C157.695 111.176 157.197 111.293 156.813 111.544C156.429 111.789 156.237 112.117 156.237 112.528C156.237 112.757 156.306 112.955 156.445 113.12C156.583 113.28 156.834 113.432 157.197 113.576C157.565 113.72 158.087 113.877 158.765 114.048C159.559 114.251 160.183 114.464 160.637 114.688C161.09 114.912 161.413 115.176 161.605 115.48C161.797 115.784 161.893 116.16 161.893 116.608C161.893 117.424 161.589 118.067 160.981 118.536C160.378 119 159.546 119.232 158.485 119.232ZM166.891 119.232C165.878 119.232 165.043 119.013 164.387 118.576C163.736 118.139 163.336 117.531 163.187 116.752L164.387 116.552C164.515 117.043 164.806 117.435 165.259 117.728C165.718 118.016 166.283 118.16 166.955 118.16C167.611 118.16 168.128 118.024 168.507 117.752C168.886 117.475 169.075 117.099 169.075 116.624C169.075 116.357 169.014 116.141 168.891 115.976C168.774 115.805 168.531 115.648 168.163 115.504C167.795 115.36 167.246 115.189 166.515 114.992C165.731 114.779 165.118 114.565 164.675 114.352C164.232 114.139 163.918 113.893 163.731 113.616C163.544 113.333 163.451 112.989 163.451 112.584C163.451 112.093 163.59 111.664 163.867 111.296C164.144 110.923 164.528 110.635 165.019 110.432C165.51 110.224 166.08 110.12 166.731 110.12C167.382 110.12 167.963 110.227 168.475 110.44C168.992 110.648 169.408 110.941 169.723 111.32C170.038 111.699 170.224 112.139 170.283 112.64L169.083 112.856C169.003 112.349 168.75 111.949 168.323 111.656C167.902 111.357 167.366 111.203 166.715 111.192C166.102 111.176 165.603 111.293 165.219 111.544C164.835 111.789 164.643 112.117 164.643 112.528C164.643 112.757 164.712 112.955 164.851 113.12C164.99 113.28 165.24 113.432 165.603 113.576C165.971 113.72 166.494 113.877 167.171 114.048C167.966 114.251 168.59 114.464 169.043 114.688C169.496 114.912 169.819 115.176 170.011 115.48C170.203 115.784 170.299 116.16 170.299 116.608C170.299 117.424 169.995 118.067 169.387 118.536C168.784 119 167.952 119.232 166.891 119.232Z" fill="#565973"/>
<path d="M17.5 142.333H15V141.5C15 141.039 14.6275 140.667 14.1667 140.667H5.83335C5.37252 140.667 5.00002 141.039 5.00002 141.5V142.333H2.50002C2.03919 142.333 1.66669 142.706 1.66669 143.167V145.667C1.66669 149.258 3.16585 151.425 5.68252 151.51C6.41585 152.767 7.67919 153.674 9.16669 153.925V155.667H7.50002V157.333H12.5V155.667H10.8334V153.925C12.32 153.673 13.5842 152.767 14.3175 151.51C16.8342 151.425 18.3334 149.258 18.3334 145.667V143.167C18.3334 142.706 17.9609 142.333 17.5 142.333ZM3.33335 145.667V144H5.00002V149.017V149.692C3.51335 149.065 3.33335 146.749 3.33335 145.667ZM10 152.333C8.16169 152.333 6.66669 150.838 6.66669 149V142.333H13.3334V149C13.3334 150.838 11.8384 152.333 10 152.333ZM15 149.692V149.017V144H16.6667V145.667C16.6667 146.749 16.4867 149.065 15 149.692Z" fill="#9397AD"/>
<path d="M37.784 153.24C36.6373 153.24 35.6693 152.987 34.88 152.48C34.0907 151.968 33.4933 151.261 33.088 150.36C32.6827 149.459 32.48 148.419 32.48 147.24C32.48 146.061 32.6827 145.021 33.088 144.12C33.4933 143.219 34.0907 142.515 34.88 142.008C35.6693 141.496 36.6373 141.24 37.784 141.24C39.1227 141.24 40.216 141.584 41.064 142.272C41.912 142.955 42.4933 143.872 42.808 145.024L41.608 145.336C41.3627 144.424 40.9227 143.701 40.288 143.168C39.6533 142.635 38.8187 142.368 37.784 142.368C36.8827 142.368 36.1333 142.573 35.536 142.984C34.9387 143.395 34.488 143.968 34.184 144.704C33.8853 145.435 33.7307 146.28 33.72 147.24C33.7147 148.2 33.8613 149.045 34.16 149.776C34.464 150.507 34.9173 151.08 35.52 151.496C36.128 151.907 36.8827 152.112 37.784 152.112C38.8187 152.112 39.6533 151.845 40.288 151.312C40.9227 150.773 41.3627 150.051 41.608 149.144L42.808 149.456C42.4933 150.608 41.912 151.528 41.064 152.216C40.216 152.899 39.1227 153.24 37.784 153.24ZM48.2291 153.24C47.3865 153.24 46.6558 153.053 46.0371 152.68C45.4238 152.307 44.9465 151.781 44.6051 151.104C44.2638 150.427 44.0931 149.632 44.0931 148.72C44.0931 147.776 44.2611 146.96 44.5971 146.272C44.9331 145.584 45.4051 145.053 46.0131 144.68C46.6265 144.307 47.3491 144.12 48.1811 144.12C49.0345 144.12 49.7625 144.317 50.3651 144.712C50.9678 145.101 51.4238 145.661 51.7331 146.392C52.0425 147.123 52.1838 147.995 52.1571 149.008H50.9571V148.592C50.9358 147.472 50.6931 146.627 50.2291 146.056C49.7705 145.485 49.0985 145.2 48.2131 145.2C47.2851 145.2 46.5731 145.501 46.0771 146.104C45.5865 146.707 45.3411 147.565 45.3411 148.68C45.3411 149.768 45.5865 150.613 46.0771 151.216C46.5731 151.813 47.2745 152.112 48.1811 152.112C48.7998 152.112 49.3385 151.971 49.7971 151.688C50.2611 151.4 50.6265 150.987 50.8931 150.448L51.9891 150.872C51.6478 151.624 51.1438 152.208 50.4771 152.624C49.8158 153.035 49.0665 153.24 48.2291 153.24ZM44.9251 149.008V148.024H51.5251V149.008H44.9251ZM53.9325 153V144.36H54.9885V146.44L54.7805 146.168C54.8765 145.912 55.0018 145.677 55.1565 145.464C55.3112 145.245 55.4792 145.067 55.6605 144.928C55.8845 144.731 56.1458 144.581 56.4445 144.48C56.7432 144.373 57.0445 144.312 57.3485 144.296C57.6525 144.275 57.9298 144.296 58.1805 144.36V145.464C57.8658 145.384 57.5218 145.365 57.1485 145.408C56.7752 145.451 56.4312 145.6 56.1165 145.856C55.8285 146.08 55.6125 146.349 55.4685 146.664C55.3245 146.973 55.2285 147.304 55.1805 147.656C55.1325 148.003 55.1085 148.347 55.1085 148.688V153H53.9325ZM64.4021 153C63.9168 153.101 63.4368 153.141 62.9621 153.12C62.4928 153.099 62.0715 152.997 61.6981 152.816C61.3301 152.635 61.0501 152.352 60.8581 151.968C60.7035 151.648 60.6181 151.325 60.6021 151C60.5915 150.669 60.5861 150.293 60.5861 149.872V141.96H61.7541V149.824C61.7541 150.187 61.7568 150.491 61.7621 150.736C61.7728 150.976 61.8288 151.189 61.9301 151.376C62.1221 151.733 62.4261 151.947 62.8421 152.016C63.2635 152.085 63.7835 152.069 64.4021 151.968V153ZM58.7381 145.368V144.36H64.4021V145.368H58.7381ZM66.2644 142.72V141.4H67.4404V142.72H66.2644ZM66.2644 153V144.36H67.4404V153H66.2644ZM70.6948 153V143.72C70.6948 143.496 70.7054 143.275 70.7268 143.056C70.7534 142.837 70.8041 142.629 70.8788 142.432C70.9534 142.229 71.0708 142.043 71.2308 141.872C71.4068 141.68 71.5988 141.541 71.8068 141.456C72.0148 141.365 72.2308 141.307 72.4548 141.28C72.6841 141.253 72.9081 141.24 73.1267 141.24H74.2308V142.232H73.2068C72.7588 142.232 72.4228 142.341 72.1988 142.56C71.9801 142.779 71.8708 143.123 71.8708 143.592V153H70.6948ZM69.1988 145.368V144.36H74.2308V145.368H69.1988ZM75.905 142.72V141.4H77.081V142.72H75.905ZM75.905 153V144.36H77.081V153H75.905ZM83.0634 153.24C82.194 153.24 81.458 153.045 80.8554 152.656C80.2527 152.267 79.794 151.731 79.4794 151.048C79.17 150.36 79.01 149.571 78.9994 148.68C79.01 147.773 79.1754 146.979 79.4954 146.296C79.8154 145.608 80.2767 145.075 80.8794 144.696C81.482 144.312 82.2127 144.12 83.0714 144.12C83.946 144.12 84.706 144.333 85.3514 144.76C86.002 145.187 86.4474 145.771 86.6874 146.512L85.5354 146.88C85.3327 146.363 85.01 145.963 84.5674 145.68C84.13 145.392 83.6287 145.248 83.0634 145.248C82.4287 145.248 81.9034 145.395 81.4874 145.688C81.0714 145.976 80.762 146.379 80.5594 146.896C80.3567 147.413 80.2527 148.008 80.2474 148.68C80.258 149.715 80.498 150.547 80.9674 151.176C81.4367 151.8 82.1354 152.112 83.0634 152.112C83.65 152.112 84.1487 151.979 84.5594 151.712C84.9754 151.44 85.29 151.045 85.5034 150.528L86.6874 150.88C86.3674 151.648 85.898 152.235 85.2794 152.64C84.6607 153.04 83.922 153.24 83.0634 153.24ZM90.7639 153.24C90.1132 153.24 89.5665 153.123 89.1239 152.888C88.6865 152.653 88.3585 152.341 88.1399 151.952C87.9212 151.563 87.8119 151.139 87.8119 150.68C87.8119 150.211 87.9052 149.811 88.0919 149.48C88.2839 149.144 88.5425 148.869 88.8679 148.656C89.1985 148.443 89.5799 148.28 90.0119 148.168C90.4492 148.061 90.9319 147.968 91.4599 147.888C91.9932 147.803 92.5132 147.731 93.0199 147.672C93.5319 147.608 93.9799 147.547 94.3639 147.488L93.9479 147.744C93.9639 146.891 93.7985 146.259 93.4519 145.848C93.1052 145.437 92.5025 145.232 91.6439 145.232C91.0519 145.232 90.5505 145.365 90.1399 145.632C89.7345 145.899 89.4492 146.32 89.2839 146.896L88.1399 146.56C88.3372 145.787 88.7345 145.187 89.3319 144.76C89.9292 144.333 90.7052 144.12 91.6599 144.12C92.4492 144.12 93.1185 144.269 93.6679 144.568C94.2225 144.861 94.6145 145.288 94.8439 145.848C94.9505 146.099 95.0199 146.379 95.0519 146.688C95.0839 146.997 95.0999 147.312 95.0999 147.632V153H94.0519V150.832L94.3559 150.96C94.0625 151.701 93.6065 152.267 92.9879 152.656C92.3692 153.045 91.6279 153.24 90.7639 153.24ZM90.8999 152.224C91.4492 152.224 91.9292 152.125 92.3399 151.928C92.7505 151.731 93.0812 151.461 93.3319 151.12C93.5825 150.773 93.7452 150.384 93.8199 149.952C93.8839 149.675 93.9185 149.371 93.9239 149.04C93.9292 148.704 93.9319 148.453 93.9319 148.288L94.3799 148.52C93.9799 148.573 93.5452 148.627 93.0759 148.68C92.6119 148.733 92.1532 148.795 91.6999 148.864C91.2519 148.933 90.8465 149.016 90.4839 149.112C90.2385 149.181 90.0012 149.28 89.7719 149.408C89.5425 149.531 89.3532 149.696 89.2039 149.904C89.0599 150.112 88.9879 150.371 88.9879 150.68C88.9879 150.931 89.0492 151.173 89.1719 151.408C89.2999 151.643 89.5025 151.837 89.7799 151.992C90.0625 152.147 90.4359 152.224 90.8999 152.224ZM101.887 153C101.401 153.101 100.921 153.141 100.447 153.12C99.9772 153.099 99.5558 152.997 99.1825 152.816C98.8145 152.635 98.5345 152.352 98.3425 151.968C98.1878 151.648 98.1025 151.325 98.0865 151C98.0758 150.669 98.0705 150.293 98.0705 149.872V141.96H99.2385V149.824C99.2385 150.187 99.2412 150.491 99.2465 150.736C99.2572 150.976 99.3132 151.189 99.4145 151.376C99.6065 151.733 99.9105 151.947 100.327 152.016C100.748 152.085 101.268 152.069 101.887 151.968V153ZM96.2225 145.368V144.36H101.887V145.368H96.2225ZM106.932 153.24C106.09 153.24 105.359 153.053 104.74 152.68C104.127 152.307 103.65 151.781 103.308 151.104C102.967 150.427 102.796 149.632 102.796 148.72C102.796 147.776 102.964 146.96 103.3 146.272C103.636 145.584 104.108 145.053 104.716 144.68C105.33 144.307 106.052 144.12 106.884 144.12C107.738 144.12 108.466 144.317 109.068 144.712C109.671 145.101 110.127 145.661 110.436 146.392C110.746 147.123 110.887 147.995 110.86 149.008H109.66V148.592C109.639 147.472 109.396 146.627 108.932 146.056C108.474 145.485 107.802 145.2 106.916 145.2C105.988 145.2 105.276 145.501 104.78 146.104C104.29 146.707 104.044 147.565 104.044 148.68C104.044 149.768 104.29 150.613 104.78 151.216C105.276 151.813 105.978 152.112 106.884 152.112C107.503 152.112 108.042 151.971 108.5 151.688C108.964 151.4 109.33 150.987 109.596 150.448L110.692 150.872C110.351 151.624 109.847 152.208 109.18 152.624C108.519 153.035 107.77 153.24 106.932 153.24ZM103.628 149.008V148.024H110.228V149.008H103.628ZM119.447 153.24C118.588 153.24 117.855 153.045 117.247 152.656C116.639 152.267 116.172 151.728 115.847 151.04C115.521 150.352 115.359 149.563 115.359 148.672C115.359 147.765 115.524 146.971 115.855 146.288C116.185 145.605 116.655 145.075 117.263 144.696C117.876 144.312 118.604 144.12 119.447 144.12C120.311 144.12 121.047 144.315 121.655 144.704C122.268 145.088 122.735 145.624 123.055 146.312C123.38 146.995 123.543 147.781 123.543 148.672C123.543 149.579 123.38 150.376 123.055 151.064C122.729 151.747 122.26 152.28 121.647 152.664C121.033 153.048 120.3 153.24 119.447 153.24ZM119.447 152.112C120.407 152.112 121.121 151.795 121.591 151.16C122.06 150.52 122.295 149.691 122.295 148.672C122.295 147.627 122.057 146.795 121.583 146.176C121.113 145.557 120.401 145.248 119.447 145.248C118.801 145.248 118.268 145.395 117.847 145.688C117.431 145.976 117.119 146.379 116.911 146.896C116.708 147.408 116.607 148 116.607 148.672C116.607 149.712 116.847 150.547 117.327 151.176C117.807 151.8 118.513 152.112 119.447 152.112ZM126.164 153V143.72C126.164 143.496 126.174 143.275 126.196 143.056C126.222 142.837 126.273 142.629 126.348 142.432C126.422 142.229 126.54 142.043 126.7 141.872C126.876 141.68 127.068 141.541 127.276 141.456C127.484 141.365 127.7 141.307 127.924 141.28C128.153 141.253 128.377 141.24 128.595 141.24H129.7V142.232H128.676C128.228 142.232 127.892 142.341 127.668 142.56C127.449 142.779 127.34 143.123 127.34 143.592V153H126.164ZM124.668 145.368V144.36H129.7V145.368H124.668ZM137.766 153.24C136.897 153.24 136.161 153.045 135.559 152.656C134.956 152.267 134.497 151.731 134.183 151.048C133.873 150.36 133.713 149.571 133.703 148.68C133.713 147.773 133.879 146.979 134.199 146.296C134.519 145.608 134.98 145.075 135.583 144.696C136.185 144.312 136.916 144.12 137.775 144.12C138.649 144.12 139.409 144.333 140.055 144.76C140.705 145.187 141.151 145.771 141.391 146.512L140.239 146.88C140.036 146.363 139.713 145.963 139.271 145.68C138.833 145.392 138.332 145.248 137.766 145.248C137.132 145.248 136.607 145.395 136.191 145.688C135.775 145.976 135.465 146.379 135.263 146.896C135.06 147.413 134.956 148.008 134.951 148.68C134.961 149.715 135.201 150.547 135.671 151.176C136.14 151.8 136.839 152.112 137.766 152.112C138.353 152.112 138.852 151.979 139.263 151.712C139.679 151.44 139.993 151.045 140.207 150.528L141.391 150.88C141.071 151.648 140.601 152.235 139.983 152.64C139.364 153.04 138.625 153.24 137.766 153.24ZM146.416 153.24C145.557 153.24 144.824 153.045 144.216 152.656C143.608 152.267 143.141 151.728 142.816 151.04C142.49 150.352 142.328 149.563 142.328 148.672C142.328 147.765 142.493 146.971 142.824 146.288C143.154 145.605 143.624 145.075 144.232 144.696C144.845 144.312 145.573 144.12 146.416 144.12C147.28 144.12 148.016 144.315 148.624 144.704C149.237 145.088 149.704 145.624 150.024 146.312C150.349 146.995 150.512 147.781 150.512 148.672C150.512 149.579 150.349 150.376 150.024 151.064C149.698 151.747 149.229 152.28 148.616 152.664C148.002 153.048 147.269 153.24 146.416 153.24ZM146.416 152.112C147.376 152.112 148.09 151.795 148.56 151.16C149.029 150.52 149.264 149.691 149.264 148.672C149.264 147.627 149.026 146.795 148.552 146.176C148.082 145.557 147.37 145.248 146.416 145.248C145.77 145.248 145.237 145.395 144.816 145.688C144.4 145.976 144.088 146.379 143.88 146.896C143.677 147.408 143.576 148 143.576 148.672C143.576 149.712 143.816 150.547 144.296 151.176C144.776 151.8 145.482 152.112 146.416 152.112ZM162.58 153L162.588 147.328C162.588 146.661 162.402 146.139 162.028 145.76C161.66 145.376 161.191 145.184 160.62 145.184C160.295 145.184 159.978 145.259 159.668 145.408C159.359 145.557 159.103 145.797 158.9 146.128C158.703 146.459 158.604 146.891 158.604 147.424L157.908 147.224C157.892 146.605 158.012 146.064 158.268 145.6C158.53 145.136 158.887 144.776 159.34 144.52C159.799 144.259 160.316 144.128 160.892 144.128C161.762 144.128 162.458 144.397 162.98 144.936C163.503 145.469 163.764 146.192 163.764 147.104L163.756 153H162.58ZM152.268 153V144.36H153.324V146.488H153.452V153H152.268ZM157.436 153L157.444 147.408C157.444 146.72 157.26 146.179 156.892 145.784C156.53 145.384 156.05 145.184 155.452 145.184C154.855 145.184 154.372 145.389 154.004 145.8C153.636 146.205 153.452 146.747 153.452 147.424L152.748 147.04C152.748 146.485 152.879 145.989 153.14 145.552C153.402 145.109 153.759 144.763 154.212 144.512C154.666 144.256 155.18 144.128 155.756 144.128C156.306 144.128 156.794 144.245 157.22 144.48C157.652 144.715 157.991 145.056 158.236 145.504C158.482 145.952 158.604 146.496 158.604 147.136L158.596 153H157.436ZM169.719 153.24C168.924 153.24 168.252 153.04 167.703 152.64C167.153 152.235 166.737 151.688 166.455 151C166.172 150.307 166.031 149.531 166.031 148.672C166.031 147.797 166.172 147.019 166.455 146.336C166.743 145.648 167.164 145.107 167.719 144.712C168.273 144.317 168.956 144.12 169.767 144.12C170.556 144.12 171.233 144.32 171.799 144.72C172.364 145.12 172.796 145.664 173.095 146.352C173.399 147.04 173.551 147.813 173.551 148.672C173.551 149.536 173.399 150.312 173.095 151C172.791 151.688 172.353 152.235 171.783 152.64C171.212 153.04 170.524 153.24 169.719 153.24ZM165.831 156.84V144.36H166.887V150.864H167.015V156.84H165.831ZM169.599 152.144C170.201 152.144 170.703 151.992 171.103 151.688C171.503 151.384 171.801 150.971 171.999 150.448C172.201 149.92 172.303 149.328 172.303 148.672C172.303 148.021 172.204 147.435 172.007 146.912C171.809 146.389 171.508 145.976 171.103 145.672C170.703 145.368 170.193 145.216 169.575 145.216C168.972 145.216 168.471 145.363 168.071 145.656C167.676 145.949 167.38 146.357 167.183 146.88C166.985 147.397 166.887 147.995 166.887 148.672C166.887 149.339 166.985 149.936 167.183 150.464C167.38 150.987 167.679 151.397 168.079 151.696C168.479 151.995 168.985 152.144 169.599 152.144ZM175.468 153V141.24H176.644V153H175.468ZM182.698 153.24C181.855 153.24 181.125 153.053 180.506 152.68C179.893 152.307 179.415 151.781 179.074 151.104C178.733 150.427 178.562 149.632 178.562 148.72C178.562 147.776 178.73 146.96 179.066 146.272C179.402 145.584 179.874 145.053 180.482 144.68C181.095 144.307 181.818 144.12 182.65 144.12C183.503 144.12 184.231 144.317 184.834 144.712C185.437 145.101 185.893 145.661 186.202 146.392C186.511 147.123 186.653 147.995 186.626 149.008H185.426V148.592C185.405 147.472 185.162 146.627 184.698 146.056C184.239 145.485 183.567 145.2 182.682 145.2C181.754 145.2 181.042 145.501 180.546 146.104C180.055 146.707 179.81 147.565 179.81 148.68C179.81 149.768 180.055 150.613 180.546 151.216C181.042 151.813 181.743 152.112 182.65 152.112C183.269 152.112 183.807 151.971 184.266 151.688C184.73 151.4 185.095 150.987 185.362 150.448L186.458 150.872C186.117 151.624 185.613 152.208 184.946 152.624C184.285 153.035 183.535 153.24 182.698 153.24ZM179.394 149.008V148.024H185.994V149.008H179.394ZM193.105 153C192.62 153.101 192.14 153.141 191.665 153.12C191.196 153.099 190.775 152.997 190.401 152.816C190.033 152.635 189.753 152.352 189.561 151.968C189.407 151.648 189.321 151.325 189.305 151C189.295 150.669 189.289 150.293 189.289 149.872V141.96H190.457V149.824C190.457 150.187 190.46 150.491 190.465 150.736C190.476 150.976 190.532 151.189 190.633 151.376C190.825 151.733 191.129 151.947 191.545 152.016C191.967 152.085 192.487 152.069 193.105 151.968V153ZM187.441 145.368V144.36H193.105V145.368H187.441ZM194.968 142.72V141.4H196.144V142.72H194.968ZM194.968 153V144.36H196.144V153H194.968ZM202.15 153.24C201.291 153.24 200.558 153.045 199.95 152.656C199.342 152.267 198.875 151.728 198.55 151.04C198.225 150.352 198.062 149.563 198.062 148.672C198.062 147.765 198.227 146.971 198.558 146.288C198.889 145.605 199.358 145.075 199.966 144.696C200.579 144.312 201.307 144.12 202.15 144.12C203.014 144.12 203.75 144.315 204.358 144.704C204.971 145.088 205.438 145.624 205.758 146.312C206.083 146.995 206.246 147.781 206.246 148.672C206.246 149.579 206.083 150.376 205.758 151.064C205.433 151.747 204.963 152.28 204.35 152.664C203.737 153.048 203.003 153.24 202.15 153.24ZM202.15 152.112C203.11 152.112 203.825 151.795 204.294 151.16C204.763 150.52 204.998 149.691 204.998 148.672C204.998 147.627 204.761 146.795 204.286 146.176C203.817 145.557 203.105 145.248 202.15 145.248C201.505 145.248 200.971 145.395 200.55 145.688C200.134 145.976 199.822 146.379 199.614 146.896C199.411 147.408 199.31 148 199.31 148.672C199.31 149.712 199.55 150.547 200.03 151.176C200.51 151.8 201.217 152.112 202.15 152.112ZM214.251 153V148.592C214.251 148.112 214.205 147.672 214.115 147.272C214.024 146.867 213.877 146.515 213.675 146.216C213.477 145.912 213.219 145.677 212.899 145.512C212.584 145.347 212.2 145.264 211.747 145.264C211.331 145.264 210.963 145.336 210.643 145.48C210.328 145.624 210.061 145.832 209.843 146.104C209.629 146.371 209.467 146.696 209.355 147.08C209.243 147.464 209.187 147.901 209.187 148.392L208.355 148.208C208.355 147.323 208.509 146.579 208.819 145.976C209.128 145.373 209.555 144.917 210.099 144.608C210.643 144.299 211.267 144.144 211.971 144.144C212.488 144.144 212.939 144.224 213.323 144.384C213.712 144.544 214.04 144.76 214.307 145.032C214.579 145.304 214.797 145.616 214.963 145.968C215.128 146.315 215.248 146.685 215.323 147.08C215.397 147.469 215.435 147.859 215.435 148.248V153H214.251ZM208.003 153V144.36H209.067V146.488H209.187V153H208.003Z" fill="#565973"/>
</svg>
